<svg width="754" height="382" viewBox="0 0 754 382" fill="none" xmlns="http://www.w3.org/2000/svg">
<path d="M4.1385 0H21.056C23.7572 0 26.2739 1.07937 27.8957 3.2381L88.1779 72.8767C108.155 49.6619 128.305 26.4528 148.46 3.2381C149.897 1.43729 152.957 0 155.3 0H172.212C174.549 0 176.35 1.80081 176.35 4.1385V121.823C176.35 124.16 174.37 125.961 172.212 125.961H155.3C152.962 125.961 151.161 124.16 151.161 121.823V42.6489C151.161 40.4902 149.903 39.9477 148.46 41.7485C129.205 63.8838 110.129 86.0136 90.8791 108.328C90.1577 109.049 89.2573 109.586 88.1779 109.586C87.2775 109.586 86.1982 109.044 85.4767 108.328C66.2215 86.0136 47.1453 63.8782 27.8957 41.7485C26.4584 39.9477 25.1945 40.4902 25.1945 42.8278V121.823C25.1945 124.16 23.3937 125.961 21.056 125.961H4.31746C1.97977 125.961 0 124.16 0 121.823V4.1385C0 1.80081 1.80081 0 4.1385 0Z" fill="white"/>
<path d="M190.745 25.1945C190.745 11.3361 202.082 0 215.94 0H291.518C305.376 0 316.712 11.3361 316.712 25.1945V100.772C316.712 114.631 305.376 125.967 291.518 125.967H215.94C202.082 125.967 190.745 114.631 190.745 100.772V25.1945ZM287.379 100.772C289.717 100.772 291.518 98.9716 291.518 96.6339V29.333C291.518 26.9953 289.717 25.1945 287.379 25.1945H220.078C217.741 25.1945 215.94 26.9953 215.94 29.333V96.6339C215.94 98.9716 217.741 100.772 220.078 100.772H287.379Z" fill="white"/>
<path d="M334.698 4.1385C334.698 1.97977 336.678 0 339.016 0H355.748C358.45 0 360.966 1.25833 362.767 3.2381L432.769 84.2128C433.312 84.7553 433.849 84.9342 434.57 84.7553C435.112 84.5763 435.47 83.8549 435.47 83.318V4.1385C435.47 1.97977 437.45 0 439.609 0H456.526C458.864 0 460.665 1.97977 460.665 4.1385V121.823C460.665 123.982 458.864 125.961 456.526 125.961H439.609C437.45 125.961 434.212 124.524 432.769 122.723C409.376 95.9124 385.982 68.7382 362.767 41.7485C361.145 39.9477 359.887 40.4902 359.887 42.8278V121.823C359.887 123.982 358.086 125.961 355.748 125.961H339.016C336.678 125.961 334.698 123.982 334.698 121.823C334.698 82.5966 334.877 43.3647 334.698 4.1385Z" fill="white"/>
<path d="M4.1385 127.701H121.823C124.16 127.701 125.961 129.501 125.961 131.839V148.757C125.961 151.094 124.16 152.895 121.823 152.895H79.7164C77.3787 152.895 75.5779 154.696 75.5779 157.034V249.529C75.5779 251.867 73.7771 253.667 71.4394 253.667H54.5219C52.1842 253.667 50.3834 251.867 50.3834 249.529V157.034C50.3834 154.696 48.5826 152.895 46.2449 152.895H4.1385C1.80081 152.895 0 151.094 0 148.757V131.839C0 129.501 1.80081 127.701 4.1385 127.701Z" fill="white"/>
<path d="M142.336 152.895C142.336 139.037 153.672 127.701 167.531 127.701H243.109C256.967 127.701 268.303 139.037 268.303 152.895V249.529C268.303 251.867 266.502 253.667 264.165 253.667H247.247C244.909 253.667 243.109 251.867 243.109 249.529V232.611C243.109 230.274 241.308 228.473 238.97 228.473H171.669C169.332 228.473 167.531 230.274 167.531 232.611V249.529C167.531 251.867 165.73 253.667 163.392 253.667H146.475C144.137 253.667 142.336 251.867 142.336 249.529V152.895ZM171.669 152.895C169.332 152.895 167.531 154.696 167.531 157.034V199.14C167.531 201.478 169.332 203.278 171.669 203.278H238.97C241.308 203.278 243.109 201.478 243.109 199.14V157.034C243.109 154.696 241.308 152.895 238.97 152.895H171.669Z" fill="white"/>
<path d="M410.103 253.667H292.418C290.081 253.667 288.28 251.867 288.28 249.529V232.611C288.28 230.095 289.359 227.394 291.518 225.772L372.493 155.591C372.85 155.412 373.029 154.869 373.029 154.511V153.969C372.672 153.247 372.129 152.889 371.592 152.889H292.413C290.075 152.889 288.274 151.089 288.274 148.751V131.833C288.274 129.496 290.075 127.695 292.413 127.695H410.097C412.435 127.695 414.235 129.496 414.235 131.833V148.751C414.235 151.268 413.156 153.969 410.997 155.591L330.023 225.772C329.665 225.951 329.486 226.493 329.486 226.851V227.394C329.844 228.115 330.386 228.473 330.923 228.473H410.103C412.44 228.473 414.241 230.274 414.241 232.611V249.529C414.241 251.867 412.44 253.667 410.103 253.667Z" fill="white"/>
<path d="M434.033 131.66C434.033 129.322 435.834 127.522 438.172 127.522H455.089C457.427 127.522 459.228 129.322 459.228 131.66V173.766C459.228 176.104 461.028 177.905 463.366 177.905H530.667C533.005 177.905 534.806 176.104 534.806 173.766V131.66C534.806 129.322 536.606 127.522 538.944 127.522H555.862C558.199 127.522 560 129.322 560 131.66V249.344C560 251.682 558.199 253.483 555.862 253.483H538.944C536.606 253.483 534.806 251.682 534.806 249.344V207.238C534.806 204.9 533.005 203.099 530.667 203.099H463.366C461.028 203.099 459.228 204.9 459.228 207.238V249.344C459.228 251.682 457.427 253.483 455.089 253.483H438.172C435.834 253.483 434.033 251.682 434.033 249.344V131.66Z" fill="white"/>
<path d="M0 259.54C0 257.381 1.97977 255.401 4.31746 255.401H21.0504C23.7516 255.401 26.2683 256.659 28.0691 258.639L98.0712 339.614C98.6136 340.156 99.1505 340.335 99.872 340.156C100.414 339.977 100.772 339.256 100.772 338.719V259.54C100.772 257.381 102.752 255.401 104.911 255.401H121.828C124.166 255.401 125.967 257.381 125.967 259.54V377.224C125.967 379.383 124.166 381.362 121.828 381.362H104.911C102.752 381.362 99.514 379.925 98.0712 378.124C74.6775 351.314 51.2838 324.139 28.0691 297.15C26.4472 295.349 25.1889 295.891 25.1889 298.229V377.224C25.1889 379.383 23.3881 381.362 21.0504 381.362H4.31746C1.97977 381.362 0 379.383 0 377.224C0 337.998 0.178962 298.766 0 259.54Z" fill="white"/>
<path d="M165.009 381.368H148.091C145.753 381.368 143.953 379.567 143.953 377.229V259.545C143.953 257.207 145.753 255.407 148.091 255.407H165.009C167.346 255.407 169.147 257.207 169.147 259.545V377.229C169.147 379.567 167.346 381.368 165.009 381.368Z" fill="white"/>
<path d="M187.144 259.54C187.144 257.202 188.945 255.401 191.282 255.401H208.2C210.538 255.401 212.338 257.202 212.338 259.54V301.646C212.338 303.984 214.139 305.785 216.477 305.785H232.13C234.832 305.785 237.348 304.705 238.97 302.546L277.117 258.639C278.739 256.481 281.256 255.401 283.957 255.401H308.967C309.688 255.401 310.404 255.759 310.589 256.48C310.946 257.202 310.767 257.918 310.41 258.639L261.463 315.141C259.842 316.942 259.842 319.822 261.463 321.617L310.41 378.119C310.767 378.84 310.946 379.556 310.589 380.277C310.41 380.999 309.688 381.357 308.967 381.357H283.957C281.256 381.357 278.739 380.277 277.117 378.119L238.97 334.211C237.348 332.053 234.832 330.973 232.13 330.973H216.477C214.139 330.973 212.338 332.774 212.338 335.112V377.218C212.338 379.556 210.538 381.357 208.2 381.357H191.282C188.945 381.357 187.144 379.556 187.144 377.218V259.534V259.54Z" fill="white"/>
<path d="M478.25 82.5V72C478.25 70.075 479.825 68.5 481.75 68.5H493.425C493.75 68.5 494 68.75 494 69.075V71.425C494 71.75 493.75 72 493.425 72H482.325C482 72 481.75 72.25 481.75 72.575V81.925C481.75 82.25 482 82.5 482.325 82.5H493.425C493.75 82.5 494 82.75 494 83.075V85.425C494 85.75 493.75 86 493.425 86H481.75C479.825 86 478.25 84.425 478.25 82.5ZM496.292 69.075C496.292 68.75 496.542 68.5 496.867 68.5H513.217C513.542 68.5 513.792 68.75 513.792 69.075V71.425C513.792 71.75 513.542 72 513.217 72H507.367C507.042 72 506.792 72.25 506.792 72.575V85.425C506.792 85.75 506.542 86 506.217 86H503.867C503.542 86 503.292 85.75 503.292 85.425V72.575C503.292 72.25 503.042 72 502.717 72H496.867C496.542 72 496.292 71.75 496.292 71.425V69.075ZM529.248 72H519.898C519.573 72 519.323 72.25 519.323 72.575V78.425C519.323 78.75 519.573 79 519.898 79H529.248C529.573 79 529.823 78.75 529.823 78.425V72.575C529.823 72.25 529.573 72 529.248 72ZM515.823 85.425V72C515.823 70.075 517.398 68.5 519.323 68.5H529.823C531.748 68.5 533.323 70.075 533.323 72V79C533.323 80.925 531.748 82.5 529.823 82.5H519.898C519.573 82.5 519.323 82.75 519.323 83.075V85.425C519.323 85.75 519.073 86 518.748 86H516.398C516.073 86 515.823 85.75 515.823 85.425ZM535.843 82.5V72C535.843 70.075 537.418 68.5 539.343 68.5H549.843C551.768 68.5 553.343 70.075 553.343 72V82.5C553.343 84.425 551.768 86 549.843 86H539.343C537.418 86 535.843 84.425 535.843 82.5ZM539.918 82.5H549.268C549.593 82.5 549.843 82.25 549.843 81.925V72.575C549.843 72.25 549.593 72 549.268 72H539.918C539.593 72 539.343 72.25 539.343 72.575V81.925C539.343 82.25 539.593 82.5 539.918 82.5ZM573.338 85.425C573.338 85.725 573.063 86 572.738 86H570.413C570.088 86 569.838 85.725 569.838 85.425V74.45C569.838 74.125 569.663 74.05 569.438 74.3C566.213 78.05 562.963 81.825 559.713 85.55C559.513 85.8 559.063 86 558.763 86H556.413C556.088 86 555.838 85.725 555.838 85.425V69.075C555.838 68.775 556.088 68.5 556.413 68.5H558.763C559.063 68.5 559.338 68.775 559.338 69.075V80.075C559.338 80.15 559.388 80.25 559.463 80.275C559.563 80.3 559.638 80.275 559.713 80.2L569.438 68.95C569.688 68.675 570.038 68.5 570.413 68.5H572.738C573.063 68.5 573.338 68.775 573.338 69.075C573.313 74.525 573.338 79.975 573.338 85.425ZM575.833 69.075C575.833 68.75 576.083 68.5 576.408 68.5H578.758C579.133 68.5 579.483 68.65 579.708 68.95L588.083 78.625C590.858 75.4 593.658 72.175 596.458 68.95C596.658 68.7 597.083 68.5 597.408 68.5H599.758C600.083 68.5 600.333 68.75 600.333 69.075V85.425C600.333 85.75 600.058 86 599.758 86H597.408C597.083 86 596.833 85.75 596.833 85.425V74.425C596.833 74.125 596.658 74.05 596.458 74.3C593.783 77.375 591.133 80.45 588.458 83.55C588.358 83.65 588.233 83.725 588.083 83.725C587.958 83.725 587.808 83.65 587.708 83.55C585.033 80.45 582.383 77.375 579.708 74.3C579.508 74.05 579.333 74.125 579.333 74.45V85.425C579.333 85.75 579.083 86 578.758 86H576.433C576.108 86 575.833 85.75 575.833 85.425V69.075ZM609.085 82.5V72C609.085 70.075 610.66 68.5 612.585 68.5H624.26C624.585 68.5 624.835 68.75 624.835 69.075V71.425C624.835 71.75 624.585 72 624.26 72H613.16C612.835 72 612.585 72.25 612.585 72.575V81.925C612.585 82.25 612.835 82.5 613.16 82.5H624.26C624.585 82.5 624.835 82.75 624.835 83.075V85.425C624.835 85.75 624.585 86 624.26 86H612.585C610.66 86 609.085 84.425 609.085 82.5ZM627.371 69.075C627.371 68.75 627.621 68.5 627.946 68.5H630.296C630.671 68.5 631.021 68.65 631.246 68.95L639.621 78.625C642.396 75.4 645.196 72.175 647.996 68.95C648.196 68.7 648.621 68.5 648.946 68.5H651.296C651.621 68.5 651.871 68.75 651.871 69.075V85.425C651.871 85.75 651.596 86 651.296 86H648.946C648.621 86 648.371 85.75 648.371 85.425V74.425C648.371 74.125 648.196 74.05 647.996 74.3C645.321 77.375 642.671 80.45 639.996 83.55C639.896 83.65 639.771 83.725 639.621 83.725C639.496 83.725 639.346 83.65 639.246 83.55C636.571 80.45 633.921 77.375 631.246 74.3C631.046 74.05 630.871 74.125 630.871 74.45V85.425C630.871 85.75 630.621 86 630.296 86H627.971C627.646 86 627.371 85.75 627.371 85.425V69.075ZM667.798 75.5H658.448C658.123 75.5 657.873 75.75 657.873 76.075V81.925C657.873 82.25 658.123 82.5 658.448 82.5H667.798C668.123 82.5 668.373 82.25 668.373 81.925V76.075C668.373 75.75 668.123 75.5 667.798 75.5ZM654.373 82.5V69.075C654.373 68.75 654.623 68.5 654.948 68.5H657.298C657.623 68.5 657.873 68.75 657.873 69.075V71.425C657.873 71.75 658.123 72 658.448 72H668.373C670.298 72 671.873 73.575 671.873 75.5V82.5C671.873 84.425 670.298 86 668.373 86H657.873C655.948 86 654.373 84.425 654.373 82.5ZM673.623 85.425V69.075C673.623 68.75 673.873 68.5 674.198 68.5H676.548C676.873 68.5 677.123 68.75 677.123 69.075V85.425C677.123 85.75 676.873 86 676.548 86H674.198C673.873 86 673.623 85.75 673.623 85.425ZM679.153 82.5V72C679.153 70.075 680.728 68.5 682.653 68.5H694.328C694.653 68.5 694.903 68.75 694.903 69.075V71.425C694.903 71.75 694.653 72 694.328 72H683.228C682.903 72 682.653 72.25 682.653 72.575V81.925C682.653 82.25 682.903 82.5 683.228 82.5H694.328C694.653 82.5 694.903 82.75 694.903 83.075V85.425C694.903 85.75 694.653 86 694.328 86H682.653C680.728 86 679.153 84.425 679.153 82.5ZM700.576 72C701.126 69.925 702.976 68.5 705.126 68.5H713.726C714.051 68.5 714.326 68.75 714.326 69.075V85.425C714.326 85.75 714.051 86 713.726 86H711.401C711.076 86 710.826 85.75 710.826 85.425V72.575C710.826 72.25 710.551 72 710.226 72H704.776C704.426 72 704.126 72.225 704.051 72.575L700.601 85.425C700.501 85.775 700.201 86 699.851 86H697.401C697.251 86 697.126 85.925 697.051 85.825C696.951 85.725 696.926 85.575 696.976 85.425L700.576 72ZM730.249 75.5H720.899C720.574 75.5 720.324 75.75 720.324 76.075V81.925C720.324 82.25 720.574 82.5 720.899 82.5H730.249C730.574 82.5 730.824 82.25 730.824 81.925V76.075C730.824 75.75 730.574 75.5 730.249 75.5ZM716.824 82.5V69.075C716.824 68.75 717.074 68.5 717.399 68.5H719.749C720.074 68.5 720.324 68.75 720.324 69.075V71.425C720.324 71.75 720.574 72 720.899 72H730.824C732.749 72 734.324 73.575 734.324 75.5V82.5C734.324 84.425 732.749 86 730.824 86H720.324C718.399 86 716.824 84.425 716.824 82.5ZM736.074 85.425V69.075C736.074 68.75 736.324 68.5 736.649 68.5H738.999C739.324 68.5 739.574 68.75 739.574 69.075V85.425C739.574 85.75 739.324 86 738.999 86H736.649C736.324 86 736.074 85.75 736.074 85.425ZM743.338 83.1C743.338 82.775 743.588 82.5 743.913 82.5H746.263C746.588 82.5 746.838 82.775 746.838 83.1V85.425C746.838 85.775 746.638 86.1 746.313 86.275L743.338 87.75V83.1ZM491.675 97H482.325C482 97 481.75 97.25 481.75 97.575V103.425C481.75 103.75 482 104 482.325 104H491.675C492 104 492.25 103.75 492.25 103.425V97.575C492.25 97.25 492 97 491.675 97ZM478.25 110.425V97C478.25 95.075 479.825 93.5 481.75 93.5H492.25C494.175 93.5 495.75 95.075 495.75 97V110.425C495.75 110.75 495.5 111 495.175 111H492.825C492.5 111 492.25 110.75 492.25 110.425V108.075C492.25 107.75 492 107.5 491.675 107.5H482.325C482 107.5 481.75 107.75 481.75 108.075V110.425C481.75 110.75 481.5 111 481.175 111H478.825C478.5 111 478.25 110.75 478.25 110.425ZM504.495 110.4V94.05C504.495 93.725 504.745 93.475 505.07 93.475H507.42C507.745 93.475 507.995 93.725 507.995 94.05V99.9C507.995 100.225 508.245 100.475 508.57 100.475H517.92C518.245 100.475 518.495 100.225 518.495 99.9V94.05C518.495 93.725 518.745 93.475 519.07 93.475H521.42C521.745 93.475 521.995 93.725 521.995 94.05V110.4C521.995 110.725 521.745 110.975 521.42 110.975H519.07C518.745 110.975 518.495 110.725 518.495 110.4V104.55C518.495 104.225 518.245 103.975 517.92 103.975H508.57C508.245 103.975 507.995 104.225 507.995 104.55V110.4C507.995 110.725 507.745 110.975 507.42 110.975H505.07C504.745 110.975 504.495 110.725 504.495 110.4ZM524.026 107.5V97C524.026 95.075 525.601 93.5 527.526 93.5H539.201C539.526 93.5 539.776 93.75 539.776 94.075V96.425C539.776 96.75 539.526 97 539.201 97H528.101C527.776 97 527.526 97.25 527.526 97.575V99.925C527.526 100.25 527.776 100.5 528.101 100.5H539.201C539.526 100.5 539.776 100.75 539.776 101.075V103.425C539.776 103.75 539.526 104 539.201 104H528.101C527.776 104 527.526 104.25 527.526 104.575V106.925C527.526 107.25 527.776 107.5 528.101 107.5H539.201C539.526 107.5 539.776 107.75 539.776 108.075V110.425C539.776 110.75 539.526 111 539.201 111H527.526C525.601 111 524.026 109.425 524.026 107.5ZM548.563 107.5V97C548.563 95.075 550.138 93.5 552.063 93.5H563.738C564.063 93.5 564.313 93.75 564.313 94.075V96.425C564.313 96.75 564.063 97 563.738 97H552.638C552.313 97 552.063 97.25 552.063 97.575V106.925C552.063 107.25 552.313 107.5 552.638 107.5H563.738C564.063 107.5 564.313 107.75 564.313 108.075V110.425C564.313 110.75 564.063 111 563.738 111H552.063C550.138 111 548.563 109.425 548.563 107.5ZM566.604 94.075C566.604 93.75 566.854 93.5 567.179 93.5H583.529C583.854 93.5 584.104 93.75 584.104 94.075V96.425C584.104 96.75 583.854 97 583.529 97H577.679C577.354 97 577.104 97.25 577.104 97.575V110.425C577.104 110.75 576.854 111 576.529 111H574.179C573.854 111 573.604 110.75 573.604 110.425V97.575C573.604 97.25 573.354 97 573.029 97H567.179C566.854 97 566.604 96.75 566.604 96.425V94.075ZM586.136 107.5V97C586.136 95.075 587.711 93.5 589.636 93.5H601.311C601.636 93.5 601.886 93.75 601.886 94.075V96.425C601.886 96.75 601.636 97 601.311 97H590.211C589.886 97 589.636 97.25 589.636 97.575V99.925C589.636 100.25 589.886 100.5 590.211 100.5H601.311C601.636 100.5 601.886 100.75 601.886 101.075V103.425C601.886 103.75 601.636 104 601.311 104H590.211C589.886 104 589.636 104.25 589.636 104.575V106.925C589.636 107.25 589.886 107.5 590.211 107.5H601.311C601.636 107.5 601.886 107.75 601.886 108.075V110.425C601.886 110.75 601.636 111 601.311 111H589.636C587.711 111 586.136 109.425 586.136 107.5ZM604.422 110.4V94.05C604.422 93.725 604.672 93.475 604.997 93.475H607.347C607.672 93.475 607.922 93.725 607.922 94.05V99.9C607.922 100.225 608.172 100.475 608.497 100.475H617.847C618.172 100.475 618.422 100.225 618.422 99.9V94.05C618.422 93.725 618.672 93.475 618.997 93.475H621.347C621.672 93.475 621.922 93.725 621.922 94.05V110.4C621.922 110.725 621.672 110.975 621.347 110.975H618.997C618.672 110.975 618.422 110.725 618.422 110.4V104.55C618.422 104.225 618.172 103.975 617.847 103.975H608.497C608.172 103.975 607.922 104.225 607.922 104.55V110.4C607.922 110.725 607.672 110.975 607.347 110.975H604.997C604.672 110.975 604.422 110.725 604.422 110.4ZM639.123 97H629.773C629.448 97 629.198 97.25 629.198 97.575V106.925C629.198 107.25 629.448 107.5 629.773 107.5H639.123C639.448 107.5 639.698 107.25 639.698 106.925V97.575C639.698 97.25 639.448 97 639.123 97ZM625.698 106.925V97C625.698 95.075 627.273 93.5 629.198 93.5H639.698C641.623 93.5 643.198 95.075 643.198 97V106.925C643.198 107.25 643.448 107.5 643.773 107.5H644.373C644.698 107.5 644.948 107.75 644.948 108.075V110.425C644.948 110.75 644.698 111 644.373 111H624.523C624.198 111 623.948 110.75 623.948 110.425V108.075C623.948 107.75 624.198 107.5 624.523 107.5H625.123C625.448 107.5 625.698 107.25 625.698 106.925ZM659.863 100.5H650.513C650.188 100.5 649.938 100.75 649.938 101.075V106.925C649.938 107.25 650.188 107.5 650.513 107.5H659.863C660.188 107.5 660.438 107.25 660.438 106.925V101.075C660.438 100.75 660.188 100.5 659.863 100.5ZM646.438 107.5V94.075C646.438 93.75 646.688 93.5 647.013 93.5H649.363C649.688 93.5 649.938 93.75 649.938 94.075V96.425C649.938 96.75 650.188 97 650.513 97H660.438C662.363 97 663.938 98.575 663.938 100.5V107.5C663.938 109.425 662.363 111 660.438 111H649.938C648.013 111 646.438 109.425 646.438 107.5ZM665.688 110.425V94.075C665.688 93.75 665.938 93.5 666.263 93.5H668.613C668.938 93.5 669.188 93.75 669.188 94.075V110.425C669.188 110.75 668.938 111 668.613 111H666.263C665.938 111 665.688 110.75 665.688 110.425Z" fill="#1DCCC3"/>
</svg>
