<svg width="754" height="382" viewBox="0 0 754 382" fill="none" xmlns="http://www.w3.org/2000/svg">
<path d="M4.1385 0H21.056C23.7572 0 26.2739 1.07937 27.8957 3.2381L88.1779 72.8767C108.155 49.6619 128.305 26.4528 148.46 3.2381C149.897 1.43729 152.957 0 155.3 0H172.212C174.549 0 176.35 1.80081 176.35 4.1385V121.823C176.35 124.16 174.37 125.961 172.212 125.961H155.3C152.962 125.961 151.161 124.16 151.161 121.823V42.6489C151.161 40.4902 149.903 39.9477 148.46 41.7485C129.205 63.8838 110.129 86.0136 90.8791 108.328C90.1577 109.049 89.2573 109.586 88.1779 109.586C87.2775 109.586 86.1982 109.044 85.4767 108.328C66.2215 86.0136 47.1453 63.8782 27.8957 41.7485C26.4584 39.9477 25.1945 40.4902 25.1945 42.8278V121.823C25.1945 124.16 23.3937 125.961 21.056 125.961H4.31746C1.97977 125.961 0 124.16 0 121.823V4.1385C0 1.80081 1.80081 0 4.1385 0Z" fill="white"/>
<path d="M190.745 25.1945C190.745 11.3361 202.082 0 215.94 0H291.518C305.376 0 316.712 11.3361 316.712 25.1945V100.772C316.712 114.631 305.376 125.967 291.518 125.967H215.94C202.082 125.967 190.745 114.631 190.745 100.772V25.1945ZM287.379 100.772C289.717 100.772 291.518 98.9716 291.518 96.6339V29.333C291.518 26.9953 289.717 25.1945 287.379 25.1945H220.078C217.741 25.1945 215.94 26.9953 215.94 29.333V96.6339C215.94 98.9716 217.741 100.772 220.078 100.772H287.379Z" fill="white"/>
<path d="M334.698 4.1385C334.698 1.97977 336.678 0 339.016 0H355.748C358.45 0 360.966 1.25833 362.767 3.2381L432.769 84.2128C433.312 84.7553 433.849 84.9342 434.57 84.7553C435.112 84.5763 435.47 83.8549 435.47 83.318V4.1385C435.47 1.97977 437.45 0 439.609 0H456.526C458.864 0 460.665 1.97977 460.665 4.1385V121.823C460.665 123.982 458.864 125.961 456.526 125.961H439.609C437.45 125.961 434.212 124.524 432.769 122.723C409.376 95.9124 385.982 68.7382 362.767 41.7485C361.145 39.9477 359.887 40.4902 359.887 42.8278V121.823C359.887 123.982 358.086 125.961 355.748 125.961H339.016C336.678 125.961 334.698 123.982 334.698 121.823C334.698 82.5966 334.877 43.3647 334.698 4.1385Z" fill="white"/>
<path d="M4.1385 127.701H121.823C124.16 127.701 125.961 129.501 125.961 131.839V148.757C125.961 151.094 124.16 152.895 121.823 152.895H79.7164C77.3787 152.895 75.5779 154.696 75.5779 157.034V249.529C75.5779 251.867 73.7771 253.667 71.4394 253.667H54.5219C52.1842 253.667 50.3834 251.867 50.3834 249.529V157.034C50.3834 154.696 48.5826 152.895 46.2449 152.895H4.1385C1.80081 152.895 0 151.094 0 148.757V131.839C0 129.501 1.80081 127.701 4.1385 127.701Z" fill="white"/>
<path d="M142.336 152.895C142.336 139.037 153.672 127.701 167.531 127.701H243.109C256.967 127.701 268.303 139.037 268.303 152.895V249.529C268.303 251.867 266.502 253.667 264.165 253.667H247.247C244.909 253.667 243.109 251.867 243.109 249.529V232.611C243.109 230.274 241.308 228.473 238.97 228.473H171.669C169.332 228.473 167.531 230.274 167.531 232.611V249.529C167.531 251.867 165.73 253.667 163.392 253.667H146.475C144.137 253.667 142.336 251.867 142.336 249.529V152.895ZM171.669 152.895C169.332 152.895 167.531 154.696 167.531 157.034V199.14C167.531 201.478 169.332 203.278 171.669 203.278H238.97C241.308 203.278 243.109 201.478 243.109 199.14V157.034C243.109 154.696 241.308 152.895 238.97 152.895H171.669Z" fill="white"/>
<path d="M410.103 253.667H292.418C290.081 253.667 288.28 251.867 288.28 249.529V232.611C288.28 230.095 289.359 227.394 291.518 225.772L372.493 155.591C372.85 155.412 373.029 154.869 373.029 154.511V153.969C372.672 153.247 372.129 152.889 371.592 152.889H292.413C290.075 152.889 288.274 151.089 288.274 148.751V131.833C288.274 129.496 290.075 127.695 292.413 127.695H410.097C412.435 127.695 414.235 129.496 414.235 131.833V148.751C414.235 151.268 413.156 153.969 410.997 155.591L330.023 225.772C329.665 225.951 329.486 226.493 329.486 226.851V227.394C329.844 228.115 330.386 228.473 330.923 228.473H410.103C412.44 228.473 414.241 230.274 414.241 232.611V249.529C414.241 251.867 412.44 253.667 410.103 253.667Z" fill="white"/>
<path d="M434.033 131.66C434.033 129.322 435.834 127.522 438.172 127.522H455.089C457.427 127.522 459.228 129.322 459.228 131.66V173.766C459.228 176.104 461.028 177.905 463.366 177.905H530.667C533.005 177.905 534.806 176.104 534.806 173.766V131.66C534.806 129.322 536.606 127.522 538.944 127.522H555.862C558.199 127.522 560 129.322 560 131.66V249.344C560 251.682 558.199 253.483 555.862 253.483H538.944C536.606 253.483 534.806 251.682 534.806 249.344V207.238C534.806 204.9 533.005 203.099 530.667 203.099H463.366C461.028 203.099 459.228 204.9 459.228 207.238V249.344C459.228 251.682 457.427 253.483 455.089 253.483H438.172C435.834 253.483 434.033 251.682 434.033 249.344V131.66Z" fill="white"/>
<path d="M0 259.54C0 257.381 1.97977 255.401 4.31746 255.401H21.0504C23.7516 255.401 26.2683 256.659 28.0691 258.639L98.0712 339.614C98.6136 340.156 99.1505 340.335 99.872 340.156C100.414 339.977 100.772 339.256 100.772 338.719V259.54C100.772 257.381 102.752 255.401 104.911 255.401H121.828C124.166 255.401 125.967 257.381 125.967 259.54V377.224C125.967 379.383 124.166 381.362 121.828 381.362H104.911C102.752 381.362 99.514 379.925 98.0712 378.124C74.6775 351.314 51.2838 324.139 28.0691 297.15C26.4472 295.349 25.1889 295.891 25.1889 298.229V377.224C25.1889 379.383 23.3881 381.362 21.0504 381.362H4.31746C1.97977 381.362 0 379.383 0 377.224C0 337.998 0.178962 298.766 0 259.54Z" fill="white"/>
<path d="M165.009 381.368H148.091C145.753 381.368 143.953 379.567 143.953 377.229V259.545C143.953 257.207 145.753 255.407 148.091 255.407H165.009C167.346 255.407 169.147 257.207 169.147 259.545V377.229C169.147 379.567 167.346 381.368 165.009 381.368Z" fill="white"/>
<path d="M187.144 259.54C187.144 257.202 188.945 255.401 191.282 255.401H208.2C210.538 255.401 212.338 257.202 212.338 259.54V301.646C212.338 303.984 214.139 305.785 216.477 305.785H232.13C234.832 305.785 237.348 304.705 238.97 302.546L277.117 258.639C278.739 256.481 281.256 255.401 283.957 255.401H308.967C309.688 255.401 310.404 255.759 310.589 256.48C310.946 257.202 310.767 257.918 310.41 258.639L261.463 315.141C259.842 316.942 259.842 319.822 261.463 321.617L310.41 378.119C310.767 378.84 310.946 379.556 310.589 380.277C310.41 380.999 309.688 381.357 308.967 381.357H283.957C281.256 381.357 278.739 380.277 277.117 378.119L238.97 334.211C237.348 332.053 234.832 330.973 232.13 330.973H216.477C214.139 330.973 212.338 332.774 212.338 335.112V377.218C212.338 379.556 210.538 381.357 208.2 381.357H191.282C188.945 381.357 187.144 379.556 187.144 377.218V259.534V259.54Z" fill="white"/>
<path d="M478.25 47.5V37C478.25 36.0333 478.592 35.2083 479.275 34.525C479.958 33.8417 480.783 33.5 481.75 33.5H493.425C493.592 33.5 493.725 33.5583 493.825 33.675C493.942 33.775 494 33.9083 494 34.075V36.425C494 36.5917 493.942 36.7333 493.825 36.85C493.725 36.95 493.592 37 493.425 37H482.325C482.158 37 482.017 37.0583 481.9 37.175C481.8 37.275 481.75 37.4083 481.75 37.575V46.925C481.75 47.0917 481.8 47.2333 481.9 47.35C482.017 47.45 482.158 47.5 482.325 47.5H493.425C493.592 47.5 493.725 47.5583 493.825 47.675C493.942 47.775 494 47.9083 494 48.075V50.425C494 50.5917 493.942 50.7333 493.825 50.85C493.725 50.95 493.592 51 493.425 51H481.75C480.783 51 479.958 50.6583 479.275 49.975C478.592 49.2917 478.25 48.4667 478.25 47.5ZM496.292 34.075C496.292 33.9083 496.342 33.775 496.442 33.675C496.559 33.5583 496.7 33.5 496.867 33.5H513.217C513.384 33.5 513.517 33.5583 513.617 33.675C513.734 33.775 513.792 33.9083 513.792 34.075V36.425C513.792 36.5917 513.734 36.7333 513.617 36.85C513.517 36.95 513.384 37 513.217 37H507.367C507.2 37 507.059 37.0583 506.942 37.175C506.842 37.275 506.792 37.4083 506.792 37.575V50.425C506.792 50.5917 506.734 50.7333 506.617 50.85C506.517 50.95 506.384 51 506.217 51H503.867C503.7 51 503.559 50.95 503.442 50.85C503.342 50.7333 503.292 50.5917 503.292 50.425V37.575C503.292 37.4083 503.234 37.275 503.117 37.175C503.017 37.0583 502.884 37 502.717 37H496.867C496.7 37 496.559 36.95 496.442 36.85C496.342 36.7333 496.292 36.5917 496.292 36.425V34.075ZM529.248 37H519.898C519.732 37 519.59 37.0583 519.473 37.175C519.373 37.275 519.323 37.4083 519.323 37.575V43.425C519.323 43.5917 519.373 43.7333 519.473 43.85C519.59 43.95 519.732 44 519.898 44H529.248C529.415 44 529.548 43.95 529.648 43.85C529.765 43.7333 529.823 43.5917 529.823 43.425V37.575C529.823 37.4083 529.765 37.275 529.648 37.175C529.548 37.0583 529.415 37 529.248 37ZM515.823 50.425V37C515.823 36.0333 516.165 35.2083 516.848 34.525C517.532 33.8417 518.357 33.5 519.323 33.5H529.823C530.79 33.5 531.615 33.8417 532.298 34.525C532.982 35.2083 533.323 36.0333 533.323 37V44C533.323 44.9667 532.982 45.7917 532.298 46.475C531.615 47.1583 530.79 47.5 529.823 47.5H519.898C519.732 47.5 519.59 47.5583 519.473 47.675C519.373 47.775 519.323 47.9083 519.323 48.075V50.425C519.323 50.5917 519.265 50.7333 519.148 50.85C519.048 50.95 518.915 51 518.748 51H516.398C516.232 51 516.09 50.95 515.973 50.85C515.873 50.7333 515.823 50.5917 515.823 50.425ZM535.843 47.5V37C535.843 36.0333 536.184 35.2083 536.868 34.525C537.551 33.8417 538.376 33.5 539.343 33.5H549.843C550.809 33.5 551.634 33.8417 552.318 34.525C553.001 35.2083 553.343 36.0333 553.343 37V47.5C553.343 48.4667 553.001 49.2917 552.318 49.975C551.634 50.6583 550.809 51 549.843 51H539.343C538.376 51 537.551 50.6583 536.868 49.975C536.184 49.2917 535.843 48.4667 535.843 47.5ZM539.918 47.5H549.268C549.434 47.5 549.568 47.45 549.668 47.35C549.784 47.2333 549.843 47.0917 549.843 46.925V37.575C549.843 37.4083 549.784 37.275 549.668 37.175C549.568 37.0583 549.434 37 549.268 37H539.918C539.751 37 539.609 37.0583 539.493 37.175C539.393 37.275 539.343 37.4083 539.343 37.575V46.925C539.343 47.0917 539.393 47.2333 539.493 47.35C539.609 47.45 539.751 47.5 539.918 47.5ZM573.338 50.425C573.338 50.575 573.28 50.7083 573.163 50.825C573.046 50.9417 572.905 51 572.738 51H570.413C570.246 51 570.105 50.9417 569.988 50.825C569.888 50.7083 569.838 50.575 569.838 50.425V39.45C569.838 39.2833 569.796 39.1917 569.713 39.175C569.646 39.1417 569.555 39.1833 569.438 39.3C565.288 44.1333 562.046 47.8833 559.713 50.55C559.48 50.85 559.163 51 558.763 51H556.413C556.246 51 556.105 50.9417 555.988 50.825C555.888 50.7083 555.838 50.575 555.838 50.425V34.075C555.838 33.925 555.888 33.7917 555.988 33.675C556.105 33.5583 556.246 33.5 556.413 33.5H558.763C558.913 33.5 559.046 33.5583 559.163 33.675C559.28 33.7917 559.338 33.925 559.338 34.075V45.075C559.338 45.175 559.38 45.2417 559.463 45.275C559.563 45.2917 559.646 45.2667 559.713 45.2L569.438 33.95C569.705 33.65 570.03 33.5 570.413 33.5H572.738C572.905 33.5 573.046 33.5583 573.163 33.675C573.28 33.7917 573.338 33.925 573.338 34.075C573.321 34.075 573.321 36.8 573.338 42.25V50.425ZM575.833 34.075C575.833 33.9083 575.883 33.775 575.983 33.675C576.1 33.5583 576.241 33.5 576.408 33.5H578.758C579.175 33.5 579.491 33.65 579.708 33.95L588.083 43.625C589.933 41.475 592.725 38.25 596.458 33.95C596.691 33.65 597.008 33.5 597.408 33.5H599.758C599.925 33.5 600.058 33.5583 600.158 33.675C600.275 33.775 600.333 33.9083 600.333 34.075V50.425C600.333 50.5917 600.275 50.7333 600.158 50.85C600.041 50.95 599.908 51 599.758 51H597.408C597.241 51 597.1 50.95 596.983 50.85C596.883 50.7333 596.833 50.5917 596.833 50.425V39.425C596.833 39.275 596.791 39.1917 596.708 39.175C596.641 39.1417 596.558 39.1833 596.458 39.3C594.958 41.0167 592.291 44.1 588.458 48.55C588.341 48.6667 588.216 48.725 588.083 48.725C587.95 48.725 587.825 48.6667 587.708 48.55C583.875 44.1 581.208 41.0167 579.708 39.3C579.608 39.1833 579.516 39.1417 579.433 39.175C579.366 39.1917 579.333 39.2833 579.333 39.45V50.425C579.333 50.5917 579.275 50.7333 579.158 50.85C579.058 50.95 578.925 51 578.758 51H576.433C576.266 51 576.125 50.95 576.008 50.85C575.891 50.7333 575.833 50.5917 575.833 50.425V34.075ZM478.25 72.5V62C478.25 61.0333 478.592 60.2083 479.275 59.525C479.958 58.8417 480.783 58.5 481.75 58.5H493.425C493.592 58.5 493.725 58.5583 493.825 58.675C493.942 58.775 494 58.9083 494 59.075V61.425C494 61.5917 493.942 61.7333 493.825 61.85C493.725 61.95 493.592 62 493.425 62H482.325C482.158 62 482.017 62.0583 481.9 62.175C481.8 62.275 481.75 62.4083 481.75 62.575V71.925C481.75 72.0917 481.8 72.2333 481.9 72.35C482.017 72.45 482.158 72.5 482.325 72.5H493.425C493.592 72.5 493.725 72.5583 493.825 72.675C493.942 72.775 494 72.9083 494 73.075V75.425C494 75.5917 493.942 75.7333 493.825 75.85C493.725 75.95 493.592 76 493.425 76H481.75C480.783 76 479.958 75.6583 479.275 74.975C478.592 74.2917 478.25 73.4667 478.25 72.5ZM496.536 59.075C496.536 58.9083 496.586 58.775 496.686 58.675C496.803 58.5583 496.944 58.5 497.111 58.5H499.461C499.878 58.5 500.194 58.65 500.411 58.95L508.786 68.625C510.636 66.475 513.428 63.25 517.161 58.95C517.394 58.65 517.711 58.5 518.111 58.5H520.461C520.628 58.5 520.761 58.5583 520.861 58.675C520.978 58.775 521.036 58.9083 521.036 59.075V75.425C521.036 75.5917 520.978 75.7333 520.861 75.85C520.744 75.95 520.611 76 520.461 76H518.111C517.944 76 517.803 75.95 517.686 75.85C517.586 75.7333 517.536 75.5917 517.536 75.425V64.425C517.536 64.275 517.494 64.1917 517.411 64.175C517.344 64.1417 517.261 64.1833 517.161 64.3C515.661 66.0167 512.994 69.1 509.161 73.55C509.044 73.6667 508.919 73.725 508.786 73.725C508.653 73.725 508.528 73.6667 508.411 73.55C504.578 69.1 501.911 66.0167 500.411 64.3C500.311 64.1833 500.219 64.1417 500.136 64.175C500.069 64.1917 500.036 64.2833 500.036 64.45V75.425C500.036 75.5917 499.978 75.7333 499.861 75.85C499.761 75.95 499.628 76 499.461 76H497.136C496.969 76 496.828 75.95 496.711 75.85C496.594 75.7333 496.536 75.5917 496.536 75.425V59.075ZM536.963 65.5H527.613C527.446 65.5 527.305 65.5583 527.188 65.675C527.088 65.775 527.038 65.9083 527.038 66.075V71.925C527.038 72.0917 527.088 72.2333 527.188 72.35C527.305 72.45 527.446 72.5 527.613 72.5H536.963C537.13 72.5 537.263 72.45 537.363 72.35C537.48 72.2333 537.538 72.0917 537.538 71.925V66.075C537.538 65.9083 537.48 65.775 537.363 65.675C537.263 65.5583 537.13 65.5 536.963 65.5ZM523.538 72.5V59.075C523.538 58.9083 523.588 58.775 523.688 58.675C523.805 58.5583 523.946 58.5 524.113 58.5H526.463C526.63 58.5 526.763 58.5583 526.863 58.675C526.98 58.775 527.038 58.9083 527.038 59.075V61.425C527.038 61.5917 527.088 61.7333 527.188 61.85C527.305 61.95 527.446 62 527.613 62H537.538C538.505 62 539.33 62.3417 540.013 63.025C540.696 63.7083 541.038 64.5333 541.038 65.5V72.5C541.038 73.4667 540.696 74.2917 540.013 74.975C539.33 75.6583 538.505 76 537.538 76H527.038C526.071 76 525.246 75.6583 524.563 74.975C523.88 74.2917 523.538 73.4667 523.538 72.5ZM542.788 75.425V59.075C542.788 58.9083 542.838 58.775 542.938 58.675C543.055 58.5583 543.196 58.5 543.363 58.5H545.713C545.88 58.5 546.013 58.5583 546.113 58.675C546.23 58.775 546.288 58.9083 546.288 59.075V75.425C546.288 75.5917 546.23 75.7333 546.113 75.85C546.013 75.95 545.88 76 545.713 76H543.363C543.196 76 543.055 75.95 542.938 75.85C542.838 75.7333 542.788 75.5917 542.788 75.425ZM548.318 72.5V62C548.318 61.0333 548.66 60.2083 549.343 59.525C550.027 58.8417 550.852 58.5 551.818 58.5H563.493C563.66 58.5 563.793 58.5583 563.893 58.675C564.01 58.775 564.068 58.9083 564.068 59.075V61.425C564.068 61.5917 564.01 61.7333 563.893 61.85C563.793 61.95 563.66 62 563.493 62H552.393C552.227 62 552.085 62.0583 551.968 62.175C551.868 62.275 551.818 62.4083 551.818 62.575V71.925C551.818 72.0917 551.868 72.2333 551.968 72.35C552.085 72.45 552.227 72.5 552.393 72.5H563.493C563.66 72.5 563.793 72.5583 563.893 72.675C564.01 72.775 564.068 72.9083 564.068 73.075V75.425C564.068 75.5917 564.01 75.7333 563.893 75.85C563.793 75.95 563.66 76 563.493 76H551.818C550.852 76 550.027 75.6583 549.343 74.975C548.66 74.2917 548.318 73.4667 548.318 72.5ZM569.741 62C570.025 60.9667 570.583 60.125 571.416 59.475C572.266 58.825 573.225 58.5 574.291 58.5H582.891C583.058 58.5 583.2 58.5583 583.316 58.675C583.433 58.775 583.491 58.9083 583.491 59.075V75.425C583.491 75.5917 583.433 75.7333 583.316 75.85C583.2 75.95 583.058 76 582.891 76H580.566C580.4 76 580.258 75.95 580.141 75.85C580.041 75.7333 579.991 75.5917 579.991 75.425V62.575C579.991 62.4083 579.933 62.275 579.816 62.175C579.7 62.0583 579.558 62 579.391 62H573.941C573.541 62 573.3 62.1917 573.216 62.575L569.766 75.425C569.65 75.8083 569.4 76 569.016 76H566.566C566.416 76 566.3 75.9417 566.216 75.825C566.116 75.725 566.091 75.5917 566.141 75.425L569.741 62ZM599.414 65.5H590.064C589.898 65.5 589.756 65.5583 589.639 65.675C589.539 65.775 589.489 65.9083 589.489 66.075V71.925C589.489 72.0917 589.539 72.2333 589.639 72.35C589.756 72.45 589.898 72.5 590.064 72.5H599.414C599.581 72.5 599.714 72.45 599.814 72.35C599.931 72.2333 599.989 72.0917 599.989 71.925V66.075C599.989 65.9083 599.931 65.775 599.814 65.675C599.714 65.5583 599.581 65.5 599.414 65.5ZM585.989 72.5V59.075C585.989 58.9083 586.039 58.775 586.139 58.675C586.256 58.5583 586.398 58.5 586.564 58.5H588.914C589.081 58.5 589.214 58.5583 589.314 58.675C589.431 58.775 589.489 58.9083 589.489 59.075V61.425C589.489 61.5917 589.539 61.7333 589.639 61.85C589.756 61.95 589.898 62 590.064 62H599.989C600.956 62 601.781 62.3417 602.464 63.025C603.148 63.7083 603.489 64.5333 603.489 65.5V72.5C603.489 73.4667 603.148 74.2917 602.464 74.975C601.781 75.6583 600.956 76 599.989 76H589.489C588.523 76 587.698 75.6583 587.014 74.975C586.331 74.2917 585.989 73.4667 585.989 72.5ZM605.239 75.425V59.075C605.239 58.9083 605.289 58.775 605.389 58.675C605.506 58.5583 605.648 58.5 605.814 58.5H608.164C608.331 58.5 608.464 58.5583 608.564 58.675C608.681 58.775 608.739 58.9083 608.739 59.075V75.425C608.739 75.5917 608.681 75.7333 608.564 75.85C608.464 75.95 608.331 76 608.164 76H605.814C605.648 76 605.506 75.95 605.389 75.85C605.289 75.7333 605.239 75.5917 605.239 75.425ZM478.25 100.4V84.05C478.25 83.8833 478.3 83.75 478.4 83.65C478.517 83.5333 478.658 83.475 478.825 83.475H481.175C481.342 83.475 481.475 83.5333 481.575 83.65C481.692 83.75 481.75 83.8833 481.75 84.05V89.9C481.75 90.0667 481.8 90.2083 481.9 90.325C482.017 90.425 482.158 90.475 482.325 90.475H491.675C491.842 90.475 491.975 90.425 492.075 90.325C492.192 90.2083 492.25 90.0667 492.25 89.9V84.05C492.25 83.8833 492.3 83.75 492.4 83.65C492.517 83.5333 492.658 83.475 492.825 83.475H495.175C495.342 83.475 495.475 83.5333 495.575 83.65C495.692 83.75 495.75 83.8833 495.75 84.05V100.4C495.75 100.567 495.692 100.708 495.575 100.825C495.475 100.925 495.342 100.975 495.175 100.975H492.825C492.658 100.975 492.517 100.925 492.4 100.825C492.3 100.708 492.25 100.567 492.25 100.4V94.55C492.25 94.3833 492.192 94.25 492.075 94.15C491.975 94.0333 491.842 93.975 491.675 93.975H482.325C482.158 93.975 482.017 94.0333 481.9 94.15C481.8 94.25 481.75 94.3833 481.75 94.55V100.4C481.75 100.567 481.692 100.708 481.575 100.825C481.475 100.925 481.342 100.975 481.175 100.975H478.825C478.658 100.975 478.517 100.925 478.4 100.825C478.3 100.708 478.25 100.567 478.25 100.4ZM511.695 87H502.345C502.178 87 502.036 87.0583 501.92 87.175C501.82 87.275 501.77 87.4083 501.77 87.575V93.425C501.77 93.5917 501.82 93.7333 501.92 93.85C502.036 93.95 502.178 94 502.345 94H511.695C511.861 94 511.995 93.95 512.095 93.85C512.211 93.7333 512.27 93.5917 512.27 93.425V87.575C512.27 87.4083 512.211 87.275 512.095 87.175C511.995 87.0583 511.861 87 511.695 87ZM498.27 100.425V87C498.27 86.0333 498.611 85.2083 499.295 84.525C499.978 83.8417 500.803 83.5 501.77 83.5H512.27C513.236 83.5 514.061 83.8417 514.745 84.525C515.428 85.2083 515.77 86.0333 515.77 87V100.425C515.77 100.592 515.711 100.733 515.595 100.85C515.495 100.95 515.361 101 515.195 101H512.845C512.678 101 512.536 100.95 512.42 100.85C512.32 100.733 512.27 100.592 512.27 100.425V98.075C512.27 97.9083 512.211 97.775 512.095 97.675C511.995 97.5583 511.861 97.5 511.695 97.5H502.345C502.178 97.5 502.036 97.5583 501.92 97.675C501.82 97.775 501.77 97.9083 501.77 98.075V100.425C501.77 100.592 501.711 100.733 501.595 100.85C501.495 100.95 501.361 101 501.195 101H498.845C498.678 101 498.536 100.95 498.42 100.85C498.32 100.733 498.27 100.592 498.27 100.425ZM528.59 97.5H537.94C538.106 97.5 538.24 97.45 538.34 97.35C538.456 97.2333 538.515 97.0917 538.515 96.925V94.575C538.515 94.4083 538.456 94.275 538.34 94.175C538.24 94.0583 538.106 94 537.94 94H528.59C528.423 94 528.281 94.0583 528.165 94.175C528.065 94.275 528.015 94.4083 528.015 94.575V96.925C528.015 97.0917 528.065 97.2333 528.165 97.35C528.281 97.45 528.423 97.5 528.59 97.5ZM528.59 90.5H537.94C538.106 90.5 538.24 90.45 538.34 90.35C538.456 90.2333 538.515 90.0917 538.515 89.925V87.575C538.515 87.4083 538.456 87.275 538.34 87.175C538.24 87.0583 538.106 87 537.94 87H528.59C528.423 87 528.281 87.0583 528.165 87.175C528.065 87.275 528.015 87.4083 528.015 87.575V89.925C528.015 90.0917 528.065 90.2333 528.165 90.35C528.281 90.45 528.423 90.5 528.59 90.5ZM524.515 97.5V87C524.515 86.0333 524.856 85.2083 525.54 84.525C526.223 83.8417 527.048 83.5 528.015 83.5H538.515C539.481 83.5 540.306 83.8417 540.99 84.525C541.673 85.2083 542.015 86.0333 542.015 87V89.25C542.015 90.0833 541.723 90.7917 541.14 91.375L540.265 92.25L541.14 93.125C541.723 93.7083 542.015 94.4167 542.015 95.25V97.5C542.015 98.4667 541.673 99.2917 540.99 99.975C540.306 100.658 539.481 101 538.515 101H528.015C527.048 101 526.223 100.658 525.54 99.975C524.856 99.2917 524.515 98.4667 524.515 97.5ZM544.29 87C544.29 86.0333 544.632 85.2083 545.315 84.525C545.998 83.8417 546.823 83.5 547.79 83.5H558.29C559.257 83.5 560.082 83.8417 560.765 84.525C561.448 85.2083 561.79 86.0333 561.79 87V100.425C561.79 100.592 561.732 100.733 561.615 100.85C561.515 100.95 561.382 101 561.215 101H558.865C558.698 101 558.557 100.95 558.44 100.85C558.34 100.733 558.29 100.592 558.29 100.425V87.575C558.29 87.4083 558.232 87.275 558.115 87.175C558.015 87.0583 557.882 87 557.715 87H548.365C548.198 87 548.057 87.0583 547.94 87.175C547.84 87.275 547.79 87.4083 547.79 87.575V100.425C547.79 100.592 547.732 100.733 547.615 100.85C547.515 100.95 547.382 101 547.215 101H544.865C544.698 101 544.557 100.95 544.44 100.85C544.34 100.733 544.29 100.592 544.29 100.425V87ZM564.285 97.5V87C564.285 86.0333 564.627 85.2083 565.31 84.525C565.993 83.8417 566.818 83.5 567.785 83.5H579.46C579.627 83.5 579.76 83.5583 579.86 83.675C579.977 83.775 580.035 83.9083 580.035 84.075V86.425C580.035 86.5917 579.977 86.7333 579.86 86.85C579.76 86.95 579.627 87 579.46 87H568.36C568.193 87 568.052 87.0583 567.935 87.175C567.835 87.275 567.785 87.4083 567.785 87.575V89.925C567.785 90.0917 567.835 90.2333 567.935 90.35C568.052 90.45 568.193 90.5 568.36 90.5H579.46C579.627 90.5 579.76 90.5583 579.86 90.675C579.977 90.775 580.035 90.9083 580.035 91.075V93.425C580.035 93.5917 579.977 93.7333 579.86 93.85C579.76 93.95 579.627 94 579.46 94H568.36C568.193 94 568.052 94.0583 567.935 94.175C567.835 94.275 567.785 94.4083 567.785 94.575V96.925C567.785 97.0917 567.835 97.2333 567.935 97.35C568.052 97.45 568.193 97.5 568.36 97.5H579.46C579.627 97.5 579.76 97.5583 579.86 97.675C579.977 97.775 580.035 97.9083 580.035 98.075V100.425C580.035 100.592 579.977 100.733 579.86 100.85C579.76 100.95 579.627 101 579.46 101H567.785C566.818 101 565.993 100.658 565.31 99.975C564.627 99.2917 564.285 98.4667 564.285 97.5ZM582.571 84.075C582.571 83.9083 582.621 83.775 582.721 83.675C582.838 83.5583 582.98 83.5 583.146 83.5H585.496C585.663 83.5 585.796 83.5583 585.896 83.675C586.013 83.775 586.071 83.9083 586.071 84.075V93.425C586.071 93.5917 586.121 93.7333 586.221 93.85C586.338 93.95 586.48 94 586.646 94H595.996C596.163 94 596.296 93.95 596.396 93.85C596.513 93.7333 596.571 93.5917 596.571 93.425V84.075C596.571 83.9083 596.621 83.775 596.721 83.675C596.838 83.5583 596.98 83.5 597.146 83.5H599.496C599.663 83.5 599.796 83.5583 599.896 83.675C600.013 83.775 600.071 83.9083 600.071 84.075V100.425C600.071 100.592 600.013 100.733 599.896 100.85C599.796 100.95 599.663 101 599.496 101H597.146C596.98 101 596.838 100.95 596.721 100.85C596.621 100.733 596.571 100.592 596.571 100.425V98.075C596.571 97.9083 596.513 97.775 596.396 97.675C596.296 97.5583 596.163 97.5 595.996 97.5H586.071C585.105 97.5 584.28 97.1583 583.596 96.475C582.913 95.7917 582.571 94.9667 582.571 94V84.075ZM616.016 87H606.666C606.499 87 606.357 87.0583 606.241 87.175C606.141 87.275 606.091 87.4083 606.091 87.575V93.425C606.091 93.5917 606.141 93.7333 606.241 93.85C606.357 93.95 606.499 94 606.666 94H616.016C616.182 94 616.316 93.95 616.416 93.85C616.532 93.7333 616.591 93.5917 616.591 93.425V87.575C616.591 87.4083 616.532 87.275 616.416 87.175C616.316 87.0583 616.182 87 616.016 87ZM602.591 100.425V87C602.591 86.0333 602.932 85.2083 603.616 84.525C604.299 83.8417 605.124 83.5 606.091 83.5H616.591C617.557 83.5 618.382 83.8417 619.066 84.525C619.749 85.2083 620.091 86.0333 620.091 87V100.425C620.091 100.592 620.032 100.733 619.916 100.85C619.816 100.95 619.682 101 619.516 101H617.166C616.999 101 616.857 100.95 616.741 100.85C616.641 100.733 616.591 100.592 616.591 100.425V98.075C616.591 97.9083 616.532 97.775 616.416 97.675C616.316 97.5583 616.182 97.5 616.016 97.5H606.666C606.499 97.5 606.357 97.5583 606.241 97.675C606.141 97.775 606.091 97.9083 606.091 98.075V100.425C606.091 100.592 606.032 100.733 605.916 100.85C605.816 100.95 605.682 101 605.516 101H603.166C602.999 101 602.857 100.95 602.741 100.85C602.641 100.733 602.591 100.592 602.591 100.425ZM621.585 84.075C621.585 83.9083 621.635 83.775 621.735 83.675C621.852 83.5583 621.993 83.5 622.16 83.5H638.51C638.677 83.5 638.81 83.5583 638.91 83.675C639.027 83.775 639.085 83.9083 639.085 84.075V86.425C639.085 86.5917 639.027 86.7333 638.91 86.85C638.81 86.95 638.677 87 638.51 87H632.66C632.493 87 632.352 87.0583 632.235 87.175C632.135 87.275 632.085 87.4083 632.085 87.575V100.425C632.085 100.592 632.027 100.733 631.91 100.85C631.81 100.95 631.677 101 631.51 101H629.16C628.993 101 628.852 100.95 628.735 100.85C628.635 100.733 628.585 100.592 628.585 100.425V87.575C628.585 87.4083 628.527 87.275 628.41 87.175C628.31 87.0583 628.177 87 628.01 87H622.16C621.993 87 621.852 86.95 621.735 86.85C621.635 86.7333 621.585 86.5917 621.585 86.425V84.075ZM641.47 87C641.753 85.9667 642.311 85.125 643.145 84.475C643.995 83.825 644.953 83.5 646.02 83.5H654.62C654.786 83.5 654.928 83.5583 655.045 83.675C655.161 83.775 655.22 83.9083 655.22 84.075V100.425C655.22 100.592 655.161 100.733 655.045 100.85C654.928 100.95 654.786 101 654.62 101H652.295C652.128 101 651.986 100.95 651.87 100.85C651.77 100.733 651.72 100.592 651.72 100.425V87.575C651.72 87.4083 651.661 87.275 651.545 87.175C651.428 87.0583 651.286 87 651.12 87H645.67C645.27 87 645.028 87.1917 644.945 87.575L641.495 100.425C641.378 100.808 641.128 101 640.745 101H638.295C638.145 101 638.028 100.942 637.945 100.825C637.845 100.725 637.82 100.592 637.87 100.425L641.47 87ZM657.229 97.5V87C657.229 86.0333 657.571 85.2083 658.254 84.525C658.938 83.8417 659.763 83.5 660.729 83.5H672.404C672.571 83.5 672.704 83.5583 672.804 83.675C672.921 83.775 672.979 83.9083 672.979 84.075V86.425C672.979 86.5917 672.921 86.7333 672.804 86.85C672.704 86.95 672.571 87 672.404 87H661.304C661.138 87 660.996 87.0583 660.879 87.175C660.779 87.275 660.729 87.4083 660.729 87.575V89.925C660.729 90.0917 660.779 90.2333 660.879 90.35C660.996 90.45 661.138 90.5 661.304 90.5H672.404C672.571 90.5 672.704 90.5583 672.804 90.675C672.921 90.775 672.979 90.9083 672.979 91.075V93.425C672.979 93.5917 672.921 93.7333 672.804 93.85C672.704 93.95 672.571 94 672.404 94H661.304C661.138 94 660.996 94.0583 660.879 94.175C660.779 94.275 660.729 94.4083 660.729 94.575V96.925C660.729 97.0917 660.779 97.2333 660.879 97.35C660.996 97.45 661.138 97.5 661.304 97.5H672.404C672.571 97.5 672.704 97.5583 672.804 97.675C672.921 97.775 672.979 97.9083 672.979 98.075V100.425C672.979 100.592 672.921 100.733 672.804 100.85C672.704 100.95 672.571 101 672.404 101H660.729C659.763 101 658.938 100.658 658.254 99.975C657.571 99.2917 657.229 98.4667 657.229 97.5ZM675.516 100.4V84.05C675.516 83.8833 675.566 83.75 675.666 83.65C675.782 83.5333 675.924 83.475 676.091 83.475H678.441C678.607 83.475 678.741 83.5333 678.841 83.65C678.957 83.75 679.016 83.8833 679.016 84.05V89.9C679.016 90.0667 679.066 90.2083 679.166 90.325C679.282 90.425 679.424 90.475 679.591 90.475H688.941C689.107 90.475 689.241 90.425 689.341 90.325C689.457 90.2083 689.516 90.0667 689.516 89.9V84.05C689.516 83.8833 689.566 83.75 689.666 83.65C689.782 83.5333 689.924 83.475 690.091 83.475H692.441C692.607 83.475 692.741 83.5333 692.841 83.65C692.957 83.75 693.016 83.8833 693.016 84.05V100.4C693.016 100.567 692.957 100.708 692.841 100.825C692.741 100.925 692.607 100.975 692.441 100.975H690.091C689.924 100.975 689.782 100.925 689.666 100.825C689.566 100.708 689.516 100.567 689.516 100.4V94.55C689.516 94.3833 689.457 94.25 689.341 94.15C689.241 94.0333 689.107 93.975 688.941 93.975H679.591C679.424 93.975 679.282 94.0333 679.166 94.15C679.066 94.25 679.016 94.3833 679.016 94.55V100.4C679.016 100.567 678.957 100.708 678.841 100.825C678.741 100.925 678.607 100.975 678.441 100.975H676.091C675.924 100.975 675.782 100.925 675.666 100.825C675.566 100.708 675.516 100.567 675.516 100.4ZM713.035 100.425C713.035 100.575 712.977 100.708 712.86 100.825C712.743 100.942 712.602 101 712.435 101H710.11C709.943 101 709.802 100.942 709.685 100.825C709.585 100.708 709.535 100.575 709.535 100.425V89.45C709.535 89.2833 709.493 89.1917 709.41 89.175C709.343 89.1417 709.252 89.1833 709.135 89.3C704.985 94.1333 701.743 97.8833 699.41 100.55C699.177 100.85 698.86 101 698.46 101H696.11C695.943 101 695.802 100.942 695.685 100.825C695.585 100.708 695.535 100.575 695.535 100.425V84.075C695.535 83.925 695.585 83.7917 695.685 83.675C695.802 83.5583 695.943 83.5 696.11 83.5H698.46C698.61 83.5 698.743 83.5583 698.86 83.675C698.977 83.7917 699.035 83.925 699.035 84.075V95.075C699.035 95.175 699.077 95.2417 699.16 95.275C699.26 95.2917 699.343 95.2667 699.41 95.2L709.135 83.95C709.402 83.65 709.727 83.5 710.11 83.5H712.435C712.602 83.5 712.743 83.5583 712.86 83.675C712.977 83.7917 713.035 83.925 713.035 84.075C713.018 84.075 713.018 86.8 713.035 92.25V100.425ZM728.98 87H719.63C719.464 87 719.322 87.0583 719.205 87.175C719.105 87.275 719.055 87.4083 719.055 87.575V93.425C719.055 93.5917 719.105 93.7333 719.205 93.85C719.322 93.95 719.464 94 719.63 94H728.98C729.147 94 729.28 93.95 729.38 93.85C729.497 93.7333 729.555 93.5917 729.555 93.425V87.575C729.555 87.4083 729.497 87.275 729.38 87.175C729.28 87.0583 729.147 87 728.98 87ZM715.555 94V87C715.555 86.0333 715.897 85.2083 716.58 84.525C717.264 83.8417 718.089 83.5 719.055 83.5H729.555C730.522 83.5 731.347 83.8417 732.03 84.525C732.714 85.2083 733.055 86.0333 733.055 87V100.425C733.055 100.592 732.997 100.733 732.88 100.85C732.78 100.95 732.647 101 732.48 101H730.13C729.964 101 729.822 100.95 729.705 100.85C729.605 100.733 729.555 100.592 729.555 100.425V98.075C729.555 97.9083 729.497 97.775 729.38 97.675C729.28 97.5583 729.147 97.5 728.98 97.5H726.33C725.964 97.5 725.63 97.6333 725.33 97.9L722.655 100.575C722.405 100.858 722.08 101 721.68 101H717.88C717.78 101 717.705 100.95 717.655 100.85C717.639 100.75 717.655 100.658 717.705 100.575L720.405 97.9C720.472 97.8333 720.489 97.75 720.455 97.65C720.405 97.55 720.33 97.5 720.23 97.5H719.055C718.089 97.5 717.264 97.1583 716.58 96.475C715.897 95.7917 715.555 94.9667 715.555 94ZM735.65 100.525L741.5 92.725C741.733 92.3917 741.733 92.075 741.5 91.775L735.65 83.975C735.55 83.8417 735.516 83.7333 735.55 83.65C735.6 83.55 735.708 83.5 735.875 83.5H739.075C739.475 83.5 739.791 83.6583 740.025 83.975L743.7 88.875C743.783 88.9917 743.9 89.05 744.05 89.05C744.2 89.05 744.316 88.9917 744.4 88.875L748.075 83.975C748.308 83.6583 748.616 83.5 749 83.5H752.2C752.366 83.5 752.475 83.55 752.525 83.65C752.575 83.7333 752.55 83.8417 752.45 83.975C749.85 87.4417 747.891 90.0417 746.575 91.775C746.375 92.0917 746.375 92.4083 746.575 92.725L752.45 100.525C752.55 100.642 752.575 100.75 752.525 100.85C752.475 100.95 752.366 101 752.2 101H749C748.616 101 748.308 100.842 748.075 100.525L744.4 95.625C744.316 95.5083 744.2 95.45 744.05 95.45C743.9 95.45 743.783 95.5083 743.7 95.625L740.025 100.525C739.791 100.842 739.475 101 739.075 101H735.875C735.708 101 735.6 100.95 735.55 100.85C735.516 100.75 735.55 100.642 735.65 100.525Z" fill="#1DCCC3"/>
</svg>
