<svg xmlns="http://www.w3.org/2000/svg" version="1.1" xmlns:xlink="http://www.w3.org/1999/xlink" xmlns:svgjs="http://svgjs.dev/svgjs" width="1000" height="1000"><g clip-path="url(#SvgjsClipPath1262)"><rect width="1000" height="1000" fill="#1d1d1b"></rect><g transform="matrix(12.5,0,0,12.5,50,75)"><svg xmlns="http://www.w3.org/2000/svg" version="1.1" xmlns:xlink="http://www.w3.org/1999/xlink" xmlns:svgjs="http://svgjs.dev/svgjs" width="72" height="68"><svg width="72" height="68" viewBox="0 0 72 68" fill="none" xmlns="http://www.w3.org/2000/svg">
<path d="M53.4026 0L35.6712 9.93145L17.9398 0L0 10.0458V56.6368L18.6862 67.1062L35.6712 54.7608L52.6562 67.1062L71.3424 56.6368V10.0458L53.4026 0ZM53.4026 1.04223L70.4481 10.5904L53.4026 20.1386L36.357 10.5904L53.4026 1.04223ZM35.6712 10.9737L52.7167 20.5219L35.6712 30.07L18.6257 20.5219L35.6712 10.9737ZM35.3283 30.7223V52.5486L18.6257 43.1954V21.3691L35.3283 30.7223ZM17.9398 65.674L0.894302 56.1258V34.1852L17.9398 43.7333V65.674ZM17.9398 42.8054L0.894302 33.2572V11.4376L17.9398 20.9791V42.8054ZM0.894302 10.5837L17.9398 1.03551L34.9853 10.5837L17.9398 20.1319L0.894302 10.5837ZM52.7234 66.064L35.6779 53.6715L18.6324 66.064V44.1233L35.6779 53.6715L52.7234 44.1233V66.064ZM70.4548 56.1258L53.4093 65.674V42.8054L36.0208 52.5419V30.7155L53.4093 20.9791L70.4548 11.4376V56.1258Z" fill="white"></path>
</svg></svg></g></g><defs><clipPath id="SvgjsClipPath1262"><rect width="1000" height="1000" x="0" y="0" rx="200" ry="200"></rect></clipPath></defs></svg>