<?xml version="1.0" encoding="utf-8"?>
<!-- Generator: Adobe Illustrator 19.0.0, SVG Export Plug-In . SVG Version: 6.00 Build 0)  -->
<svg version="1.1" id="layer" xmlns="http://www.w3.org/2000/svg" xmlns:xlink="http://www.w3.org/1999/xlink" x="0px" y="0px"
	 viewBox="-153 -46 652 652" style="enable-background:new -153 -46 652 652;" xml:space="preserve">
<path d="M-75,223.3c5.1,0,9.8,0.4,14.2,1.6c4.3,0.8,7.9,2.4,11,4.3c3.1,2,5.5,4.7,7.1,8.3s2.4,7.9,2.4,12.6c0,5.5-1.2,10.2-3.9,13.8
	c-2.4,3.5-6.3,6.7-11,9.1c6.7,2,11.8,5.5,15,10.2c3.1,4.7,5.1,10.6,5.1,17.3c0,5.5-1.2,10.2-3.1,14.2c-2,3.9-5.1,7.5-8.7,9.8
	c-3.5,2.4-7.9,4.3-12.6,5.5c-4.7,1.2-9.4,2-14.2,2h-52.7V223.3H-75z M-78.1,267.4c4.3,0,7.9-1.2,10.6-3.1c2.8-2,3.9-5.5,3.9-9.8
	c0-2.4-0.4-4.7-1.2-6.3s-2-2.8-3.5-3.9c-1.6-0.8-3.1-1.6-5.1-2c-2-0.4-3.9-0.4-6.3-0.4h-22.8v25.6
	C-102.5,267.4-78.1,267.4-78.1,267.4z M-76.9,313.9c2.4,0,4.7-0.4,6.7-0.8c2-0.4,3.9-1.2,5.5-2.4c1.6-1.2,2.8-2.4,3.9-4.3
	c0.8-2,1.6-4.3,1.6-7.1c0-5.5-1.6-9.4-4.7-12.2c-3.1-2.4-7.5-3.5-12.6-3.5h-26v30.3H-76.9z M-1,313.5c3.1,3.1,7.9,4.7,14.2,4.7
	c4.3,0,8.3-1.2,11.4-3.1c3.1-2.4,5.1-4.7,5.9-7.1h19.3c-3.1,9.4-7.9,16.1-14.2,20.5c-6.3,3.9-13.8,6.3-22.8,6.3
	c-6.3,0-11.8-1.2-16.9-3.1c-5.1-2-9.1-4.7-12.6-8.7c-3.5-3.5-6.3-7.9-7.9-13c-2-5.1-2.8-10.6-2.8-16.9c0-5.9,0.8-11.4,2.8-16.5
	c2-5.1,4.7-9.4,8.3-13.4c3.5-3.5,7.9-6.7,12.6-8.7c5.1-2,10.2-3.1,16.5-3.1c6.7,0,12.6,1.2,17.7,3.9c5.1,2.8,9.1,5.9,12.2,10.6
	c3.1,4.3,5.5,9.4,7.1,15c0.8,5.5,1.2,11,0.8,17.3H-6.5C-6.5,304.4-4.1,310.3-1,313.5z M23.8,272.1c-2.8-2.8-7.1-4.3-12.2-4.3
	c-3.5,0-6.3,0.8-8.7,2c-2.4,1.2-3.9,2.8-5.5,4.3s-2.4,3.5-2.8,5.5c-0.4,2-0.8,3.5-0.8,5.1h35.4C28.6,278.8,26.6,274.9,23.8,272.1z
	 M81.3,223.3v40.9h0.4c2.8-4.7,6.3-7.9,10.6-9.8c4.3-2,8.3-3.1,12.6-3.1c5.9,0,10.6,0.8,14.2,2.4c3.5,1.6,6.7,3.9,8.7,6.7
	c2,2.8,3.5,6.3,4.3,10.2c0.8,3.9,1.2,8.3,1.2,13.4v48.4h-21.6v-44.5c0-6.7-1.2-11.4-3.1-14.6c-2-3.1-5.5-4.7-10.6-4.7
	c-5.9,0-10.2,2-12.6,5.1c-2.8,3.5-3.9,9.4-3.9,17.3v41.3H59.7v-109H81.3z M149,265.1c2.4-3.5,5.1-5.9,8.7-8.3
	c3.5-2,7.5-3.5,11.8-4.3c4.3-0.8,8.7-1.2,13-1.2c3.9,0,7.9,0.4,12.2,0.8c3.9,0.4,7.9,1.6,11,3.1c3.5,1.6,5.9,3.9,8.3,6.7
	c2,2.8,3.1,6.7,3.1,11.4v41.3c0,3.5,0.4,7.1,0.8,10.2s1.6,5.9,2.8,7.5h-22c-0.8-0.8-1.2-2.4-1.6-3.5s-0.4-2.8-0.4-3.9
	c-3.5,3.5-7.5,5.9-12.2,7.5c-4.7,1.6-9.4,2-14.2,2c-3.9,0-7.1-0.4-10.6-1.6c-3.1-0.8-5.9-2.4-8.7-4.3c-2.4-2-4.3-4.3-5.9-7.5
	c-1.2-3.1-2-6.3-2-10.6c0-4.3,0.8-8.3,2.4-11c1.6-2.8,3.5-5.1,5.9-7.1c2.4-1.6,5.5-3.1,8.7-3.9c3.1-0.8,6.3-1.6,9.8-2l9.4-1.2
	c3.1-0.4,5.9-0.8,8.3-1.2c2.4-0.8,4.3-1.6,5.9-2.8s2-2.8,2-5.1c0-2.4-0.4-4.3-1.2-5.5c-0.8-1.2-2-2.4-3.1-3.1
	c-1.2-0.8-2.8-1.2-4.3-1.6c-1.6-0.4-3.5-0.4-5.5-0.4c-4.3,0-7.5,0.8-9.8,2.8s-3.9,5.1-4.3,9.1h-21.6
	C145.5,272.5,147,268.2,149,265.1z M191.9,295.8c-1.2,0.4-2.8,0.8-4.3,1.2s-3.1,0.4-5.1,0.8c-1.6,0.4-3.5,0.4-5.1,0.8l-4.7,1.2
	c-1.6,0.4-3.1,1.2-3.9,2c-1.2,0.8-2,2-2.8,3.1c-1.2,1.6-1.2,3.1-1.2,5.1s0.4,3.5,1.2,4.7c0.8,1.2,1.6,2.4,2.8,3.1
	c1.2,0.8,2.8,1.2,4.3,1.6c1.6,0.4,3.1,0.4,5.1,0.4c4.3,0,7.5-0.8,9.8-2c2.4-1.6,3.9-3.1,5.1-5.1s2-3.9,2-5.9c0.4-2,0.4-3.5,0.4-4.7
	v-8.3C194.3,294.6,193.1,295.4,191.9,295.8z M249.8,253.2v11h0.4c2.8-4.7,6.3-7.9,10.6-9.8c4.3-2,9.1-3.1,13.4-3.1
	c5.9,0,10.6,0.8,14.2,2.4c3.9,1.6,6.7,3.9,8.7,6.7c2,2.8,3.5,6.3,4.7,10.2c0.8,3.9,1.2,8.3,1.2,13.4v48.4h-21.6v-44.5
	c0-6.7-1.2-11.4-3.1-14.6c-2-3.1-5.5-5.1-11-5.1c-5.9,0-10.2,2.4-13,5.9c-2.8,3.5-3.9,9.4-3.9,17.3v41.3h-21.6v-79.5
	C228.5,253.2,249.8,253.2,249.8,253.2z M351.3,267.4c-3.5,0-6.3,0.8-8.7,2.4s-4.3,3.5-5.9,6.3c-1.6,2.4-2.4,5.1-3.1,8.3
	s-0.8,5.9-0.8,9.1c0,2.8,0.4,5.9,0.8,8.7c0.8,3.1,1.6,5.5,3.1,7.9c1.6,2.4,3.1,4.3,5.5,5.9c2.4,1.6,5.1,2.4,8.7,2.4
	c5.1,0,9.1-1.6,12.2-4.3c2.8-2.8,4.7-6.7,5.1-11.8h20.9c-1.6,10.6-5.5,18.5-12.2,24c-6.7,5.5-15.4,8.3-26,8.3
	c-5.9,0-11.4-1.2-16.1-3.1c-5.1-2-9.1-4.7-12.6-8.3c-3.5-3.5-6.3-7.9-8.3-12.6c-2-5.1-2.8-10.2-2.8-16.1c0-6.3,0.8-11.8,2.8-16.9
	c2-5.1,4.3-9.8,7.9-13.8c3.5-3.9,7.9-6.7,12.6-9.1c5.1-2,10.6-3.1,16.9-3.1c4.7,0,9.1,0.8,13.4,2c4.3,1.2,8.3,3.1,11.4,5.5
	c3.5,2.4,6.3,5.5,8.3,9.4c2,3.5,3.1,8.3,3.5,13.4h-21.3C365.9,272.1,360.8,267.4,351.3,267.4z M-10.8,230.8h44.1v10.6h-44.1V230.8z
	 M421.8,313.5c3.1,3.1,8.3,4.7,14.2,4.7c4.3,0,8.3-1.2,11.4-3.1c3.1-2.4,5.1-4.7,5.9-7.1h18.9c-3.1,9.4-7.9,16.1-14.2,20.5
	c-6.3,3.9-13.8,6.3-22.8,6.3c-6.3,0-11.8-1.2-16.9-3.1c-5.1-2-9.1-4.7-12.6-8.7c-3.5-3.5-6.3-7.9-7.9-13c-2-5.1-2.8-10.6-2.8-16.9
	c0-5.9,0.8-11.4,2.8-16.5c2-5.1,4.7-9.4,8.3-13.4c3.5-3.5,7.9-6.7,12.6-8.7c5.1-2,10.6-3.1,16.5-3.1c6.7,0,12.6,1.2,17.3,3.9
	c5.1,2.8,9.1,5.9,12.2,10.6c3.1,4.3,5.5,9.4,7.1,15c1.6,5.5,2,11.4,1.6,17.7h-57.1C416.3,304.4,418.6,310.3,421.8,313.5z M447,272.1
	c-2.8-2.8-7.1-4.3-12.2-4.3c-3.5,0-6.3,0.8-8.7,2c-2.4,1.2-4.3,2.8-5.5,4.3c-1.2,1.6-2.4,3.5-2.8,5.5c-0.4,2-0.8,3.5-0.8,5.1h35.4
	C451.3,278.8,449.3,274.9,447,272.1z"/>
</svg>
