<svg width="260" height="49" viewBox="0 0 260 49" fill="none" xmlns="http://www.w3.org/2000/svg">
<path d="M24.9565 0C26.239 0.289438 27.5215 0.578875 28.809 0.863323C33.3652 1.86637 36.3743 4.33658 37.1528 9.20212C37.9213 14.0278 36.6189 17.8853 32.432 20.605C32.1026 20.8196 31.7932 21.0691 31.1794 21.5132C36.7336 23.6141 39.3136 27.6164 39.4933 33.1756C39.6779 38.7946 37.073 43.0464 31.8731 45.1323C29.5226 46.0755 26.9227 46.824 24.4176 46.8889C16.2834 47.0885 8.13919 46.9288 0 46.9039V0H24.9565ZM10.5146 39.0192C15.2703 39.0192 19.7516 39.3086 24.173 38.9244C27.4517 38.6399 29.0685 36.2745 29.1334 33.0857C29.2083 29.4528 27.7461 26.8977 24.3776 26.5734C19.8215 26.1342 15.1855 26.4636 10.5146 26.4636V39.0192ZM10.5295 19.552C15.1007 19.2326 19.562 19.1827 23.9285 18.514C26.4836 18.1198 27.5565 15.8841 27.3369 13.1844C27.1373 10.7142 26.0544 8.63822 23.4145 8.48352C19.1578 8.23899 14.8811 8.41865 10.5295 8.41865V19.552Z" fill="#1DCCC3"/>
<path d="M89.8301 0V17.7954C91.0876 16.5329 91.7813 15.6546 92.6446 15.0058C96.8564 11.832 101.537 11.4278 106.313 13.2742C110.904 15.0508 112.257 19.0779 112.321 23.5592C112.431 31.3541 112.351 39.1539 112.351 47.1235H103.359C103.309 46.2901 103.219 45.4218 103.214 44.5535C103.199 39.2338 103.224 33.9191 103.194 28.5994C103.189 27.3618 103.119 26.1043 102.89 24.8867C102.186 21.104 100.509 19.6119 97.1309 19.6069C93.3632 19.6069 90.6685 21.5581 90.4339 25.236C90.0347 31.4439 90.0846 37.6768 89.9548 43.8997C89.9349 44.9527 89.9548 46.0006 89.9548 47.1634H80.9773C80.8874 46.7342 80.7627 46.4248 80.7627 46.1104C80.7827 30.7403 80.8176 15.3701 80.8475 0.00499031H89.8301V0Z" fill="#1DCCC3"/>
<path d="M57.8924 48.4059C56.6449 48.0416 55.3923 47.7023 54.1547 47.3131C46.804 45.0025 42.2279 37.4023 42.9714 28.7591C43.9844 16.947 53.5608 10.0355 65.0785 12.8051C70.5628 14.1225 75.5881 19.6618 76.3965 25.4655C76.7009 27.6562 76.6959 29.8869 76.8506 32.3821H52.0288C52.2334 35.9501 53.0568 38.8495 56.3205 40.4214C59.4195 41.9185 64.2451 41.4844 66.3061 38.9693C67.9878 36.9133 69.8292 36.6338 72.1148 36.8085C73.3474 36.9033 74.595 36.8234 75.8476 36.8234C75.3835 41.684 70.8622 46.315 65.4577 47.6025C64.4297 47.847 63.4167 48.1365 62.3937 48.4059H57.9024H57.8924ZM52.4231 26.5284H67.3091C66.9199 21.7228 64.2351 19.2576 59.7139 19.3773C55.2126 19.4921 52.478 22.097 52.4231 26.5284Z" fill="#1DCCC3"/>
<path d="M241.037 48.406C239.704 48.0367 238.347 47.7323 237.04 47.2882C231.78 45.4867 228.531 41.8088 226.889 36.539C224.544 29.0087 226.75 20.3305 232.349 15.8692C239.595 10.1004 254.67 9.71614 259.057 24.4326C259.356 25.4406 259.686 26.4437 260 27.4467V32.437H235.383C235.298 33.0758 235.173 33.4001 235.223 33.6996C235.747 36.8834 236.885 39.7478 240.308 40.7109C244.031 41.7589 247.544 41.3447 250.339 38.2607C250.808 37.7417 251.357 36.9482 251.911 36.9133C254.251 36.7636 256.607 36.8484 259.037 36.8484C257.64 42.4625 253.667 46.3699 248.378 47.6175C247.26 47.882 246.142 48.1415 245.024 48.406H241.032H241.037ZM250.813 26.5834C249.545 20.7647 246.861 18.7636 241.646 19.4772C238.008 19.9762 235.642 22.8057 235.792 26.5834H250.808H250.813Z" fill="#1DCCC3"/>
<path d="M127.078 23.3696H118.345C117.831 19.9363 119.653 16.2933 123.425 14.5268C130.302 11.303 137.433 11.2931 144.414 14.2274C147.189 15.3901 148.741 17.8204 148.771 20.9643C148.821 26.3688 148.741 31.7783 148.886 37.1778C148.976 40.5462 149.385 43.9097 149.664 47.4129C147.369 47.4129 144.699 47.6175 142.084 47.3031C141.186 47.1933 140.442 45.796 139.424 44.783C135.896 47.9319 131.11 48.5158 126.12 47.9119C122.277 47.4478 118.994 45.7761 117.676 41.8786C116.434 38.2008 116.249 34.2734 119.278 31.379C120.975 29.7572 123.43 28.7242 125.721 27.9856C127.976 27.257 130.467 27.282 132.842 26.8977C134.389 26.6482 135.996 26.4586 137.428 25.8747C140.003 24.8318 140.447 21.9973 138.521 19.9862C135.597 16.9371 129.214 18.1198 127.632 22.0072C127.447 22.4614 127.268 22.9155 127.078 23.3796V23.3696ZM139.559 31.0746C136.021 31.8032 132.777 32.3721 129.583 33.1556C127.567 33.6546 126.285 35.022 126.22 37.2377C126.165 39.1539 126.869 40.7957 128.75 41.3746C133.92 42.9765 139.374 41.2549 139.554 34.6826C139.584 33.5299 139.554 32.3721 139.554 31.0746H139.559Z" fill="#1DCCC3"/>
<path d="M163.193 47.3929H153.916V13.1494H162.973C163.053 14.4519 163.133 15.7893 163.238 17.4461C167.994 11.9368 173.628 11.1284 179.856 13.379C183.464 14.6815 185.365 17.8503 185.515 21.2687C185.889 29.8719 185.639 38.4952 185.639 47.2632H176.697C176.697 41.679 176.732 36.2146 176.682 30.7502C176.662 28.6843 176.647 26.5833 176.283 24.5573C175.694 21.2737 174.092 19.8215 171.297 19.542C168.074 19.2176 165.064 20.7896 164.091 23.684C163.497 25.4505 163.258 27.4067 163.228 29.2831C163.123 35.2465 163.188 41.2149 163.188 47.3929H163.193Z" fill="#1DCCC3"/>
<path d="M223.241 34.2385C222.836 38.58 221.215 41.9834 218.076 44.5934C211.019 50.462 194.916 49.6735 190.579 36.8484C187.76 28.5096 191.098 18.6188 198.339 14.3621C204.173 10.9338 213.679 11.7671 218.744 16.1536C221.25 18.3244 222.617 21.4134 222.622 25.0913H214.014C212.018 19.9113 209.507 18.1697 205.281 19.4622C203.798 19.9163 202.281 20.9842 201.293 22.1919C198.169 25.9995 198.249 34.2485 201.174 38.2058C203.005 40.686 205.46 41.4595 208.405 41.0253C211.339 40.5911 213.365 38.9493 213.999 36.0849C214.368 34.4281 215.176 34.1736 216.584 34.2185C218.724 34.2884 220.87 34.2385 223.241 34.2385Z" fill="#1DCCC3"/>
<path d="M50.3369 7.67511V3.53815H69.0655V7.67511H50.3369Z" fill="#1DCCC3"/>
</svg>
