<svg width="160" height="68" viewBox="0 0 160 68" fill="none" xmlns="http://www.w3.org/2000/svg">
<path d="M79.3507 51.0895H80.0971C80.2181 51.0895 80.3257 51.1366 80.3997 51.2307L83.0557 54.2969C83.9366 53.2748 84.8241 52.2528 85.7117 51.2307C85.7722 51.15 85.9067 51.0895 86.0143 51.0895H86.7607C86.8615 51.0895 86.9422 51.1702 86.9422 51.271V56.4553C86.9422 56.5562 86.8548 56.6369 86.7607 56.6369H86.0143C85.9134 56.6369 85.8327 56.5562 85.8327 56.4553V52.9655C85.8327 52.8714 85.779 52.8445 85.7117 52.9252C84.8645 53.9002 84.024 54.8752 83.1767 55.8569C83.1431 55.8905 83.1028 55.9107 83.0557 55.9107C83.0154 55.9107 82.9683 55.8838 82.9347 55.8569C82.0874 54.8752 81.2469 53.9002 80.3997 52.9252C80.3392 52.8445 80.2787 52.8714 80.2787 52.9722V56.4486C80.2787 56.5494 80.198 56.6301 80.0971 56.6301H79.3575C79.2566 56.6301 79.1692 56.5494 79.1692 56.4486V51.2643C79.1692 51.1635 79.2499 51.0828 79.3507 51.0828V51.0895Z" fill="white"/>
<path d="M89.894 52.199C89.894 51.5871 90.3916 51.0895 91.0035 51.0895H94.3319C94.9438 51.0895 95.4414 51.5871 95.4414 52.199V55.5274C95.4414 56.1393 94.9438 56.6369 94.3319 56.6369H91.0035C90.3916 56.6369 89.894 56.1393 89.894 55.5274V52.199ZM94.1504 55.5274C94.2512 55.5274 94.3319 55.4467 94.3319 55.3458V52.3805C94.3319 52.2797 94.2512 52.199 94.1504 52.199H91.1851C91.0842 52.199 91.0035 52.2797 91.0035 52.3805V55.3458C91.0035 55.4467 91.0842 55.5274 91.1851 55.5274H94.1504Z" fill="white"/>
<path d="M98.5547 51.271C98.5547 51.1769 98.6421 51.0895 98.743 51.0895H99.4826C99.6036 51.0895 99.7112 51.1433 99.7919 51.2307L102.878 54.7945C102.878 54.7945 102.925 54.8281 102.959 54.8214C102.986 54.8146 102.999 54.781 102.999 54.7608V51.271C102.999 51.1769 103.087 51.0895 103.181 51.0895H103.927C104.028 51.0895 104.109 51.1769 104.109 51.271V56.4553C104.109 56.5494 104.028 56.6369 103.927 56.6369H103.181C103.087 56.6369 102.946 56.5763 102.878 56.4956C101.849 55.3122 100.821 54.1153 99.7919 52.9319C99.718 52.8512 99.6642 52.8781 99.6642 52.979V56.4553C99.6642 56.5494 99.5835 56.6369 99.4826 56.6369H98.743C98.6421 56.6369 98.5547 56.5494 98.5547 56.4553C98.5547 54.7272 98.5614 52.9991 98.5547 51.271Z" fill="white"/>
<path d="M107.323 51.0895H112.507C112.608 51.0895 112.689 51.1702 112.689 51.271V52.0174C112.689 52.1183 112.608 52.199 112.507 52.199H110.651C110.55 52.199 110.47 52.2797 110.47 52.3805V56.4553C110.47 56.5562 110.389 56.6369 110.288 56.6369H109.542C109.441 56.6369 109.36 56.5562 109.36 56.4553V52.3805C109.36 52.2797 109.28 52.199 109.179 52.199H107.323C107.222 52.199 107.141 52.1183 107.141 52.0174V51.271C107.141 51.1702 107.222 51.0895 107.323 51.0895Z" fill="white"/>
<path d="M115.654 52.199C115.654 51.5871 116.152 51.0895 116.764 51.0895H120.092C120.704 51.0895 121.201 51.5871 121.201 52.199V56.4553C121.201 56.5562 121.121 56.6369 121.02 56.6369H120.273C120.173 56.6369 120.092 56.5562 120.092 56.4553V55.7089C120.092 55.6081 120.011 55.5274 119.91 55.5274H116.945C116.844 55.5274 116.764 55.6081 116.764 55.7089V56.4553C116.764 56.5562 116.683 56.6369 116.582 56.6369H115.836C115.735 56.6369 115.654 56.5562 115.654 56.4553V52.199ZM116.945 52.199C116.844 52.199 116.764 52.2797 116.764 52.3805V54.2364C116.764 54.3372 116.844 54.4179 116.945 54.4179H119.91C120.011 54.4179 120.092 54.3372 120.092 54.2364V52.3805C120.092 52.2797 120.011 52.199 119.91 52.199H116.945Z" fill="white"/>
<path d="M129.687 56.6369H124.503C124.402 56.6369 124.321 56.5562 124.321 56.4553V55.7089C124.321 55.6013 124.368 55.4803 124.462 55.4064L128.026 52.3133C128.026 52.3133 128.053 52.2797 128.053 52.2662V52.2393C128.053 52.2393 128.013 52.1922 127.993 52.1922H124.503C124.402 52.1922 124.321 52.1116 124.321 52.0107V51.2643C124.321 51.1635 124.402 51.0828 124.503 51.0828H129.687C129.788 51.0828 129.869 51.1635 129.869 51.2643V52.0107C129.869 52.1183 129.822 52.2393 129.727 52.3133L126.164 55.4064C126.164 55.4064 126.137 55.44 126.137 55.4534V55.4803C126.137 55.4803 126.177 55.5274 126.197 55.5274H129.687C129.788 55.5274 129.869 55.6081 129.869 55.7089V56.4553C129.869 56.5562 129.788 56.6369 129.687 56.6369Z" fill="white"/>
<path d="M132.989 51.2643C132.989 51.1635 133.069 51.0828 133.17 51.0828H133.917C134.018 51.0828 134.098 51.1635 134.098 51.2643V53.1202C134.098 53.221 134.179 53.3017 134.28 53.3017H137.245C137.346 53.3017 137.427 53.221 137.427 53.1202V51.2643C137.427 51.1635 137.507 51.0828 137.608 51.0828H138.355C138.455 51.0828 138.536 51.1635 138.536 51.2643V56.4486C138.536 56.5494 138.455 56.6301 138.355 56.6301H137.608C137.507 56.6301 137.427 56.5494 137.427 56.4486V54.5927C137.427 54.4919 137.346 54.4112 137.245 54.4112H134.28C134.179 54.4112 134.098 54.4919 134.098 54.5927V56.4486C134.098 56.5494 134.018 56.6301 133.917 56.6301H133.17C133.069 56.6301 132.989 56.5494 132.989 56.4486V51.2643Z" fill="white"/>
<path d="M141.656 51.271C141.656 51.1769 141.743 51.0895 141.844 51.0895H142.584C142.705 51.0895 142.813 51.1433 142.893 51.2307L145.98 54.7945C145.98 54.7945 146.027 54.8281 146.06 54.8214C146.087 54.8146 146.101 54.781 146.101 54.7608V51.271C146.101 51.1769 146.188 51.0895 146.282 51.0895H147.029C147.129 51.0895 147.21 51.1769 147.21 51.271V56.4553C147.21 56.5494 147.129 56.6369 147.029 56.6369H146.282C146.188 56.6369 146.047 56.5763 145.98 56.4956C144.951 55.3122 143.922 54.1153 142.893 52.9319C142.819 52.8512 142.765 52.8781 142.765 52.979V56.4553C142.765 56.5494 142.685 56.6369 142.584 56.6369H141.844C141.743 56.6369 141.656 56.5494 141.656 56.4553C141.656 54.7272 141.663 52.9991 141.656 51.271Z" fill="white"/>
<path d="M151.251 56.6369H150.505C150.404 56.6369 150.323 56.5562 150.323 56.4553V51.271C150.323 51.1702 150.404 51.0895 150.505 51.0895H151.251C151.352 51.0895 151.433 51.1702 151.433 51.271V56.4553C151.433 56.5562 151.352 56.6369 151.251 56.6369Z" fill="white"/>
<path d="M154.546 51.271C154.546 51.1702 154.627 51.0895 154.727 51.0895H155.474C155.575 51.0895 155.655 51.1702 155.655 51.271V53.1269C155.655 53.2278 155.736 53.3084 155.837 53.3084H156.53C156.651 53.3084 156.758 53.2614 156.832 53.1672L158.513 51.2307C158.587 51.1366 158.695 51.0895 158.816 51.0895H159.918C159.918 51.0895 159.979 51.1029 159.992 51.1366C160.006 51.1702 159.999 51.1971 159.986 51.2307L157.827 53.7186C157.753 53.7993 157.753 53.9271 157.827 54.001L159.986 56.4889C159.986 56.4889 160.013 56.5494 159.992 56.5831C159.986 56.6167 159.952 56.6301 159.918 56.6301H158.816C158.695 56.6301 158.587 56.5831 158.513 56.4889L156.832 54.5524C156.758 54.4583 156.651 54.4112 156.53 54.4112H155.837C155.736 54.4112 155.655 54.4919 155.655 54.5927V56.4486C155.655 56.5494 155.575 56.6301 155.474 56.6301H154.727C154.627 56.6301 154.546 56.5494 154.546 56.4486V51.2643V51.271Z" fill="white"/>
<path d="M70.4479 11.4444V56.1258L53.4024 65.674V42.8054L35.6643 52.7369V30.9105L53.4024 20.9858L70.4479 11.4444Z" fill="white"/>
<path d="M18.6189 44.1233V66.064L35.6644 53.6715L18.6189 44.1233Z" fill="white"/>
<path d="M53.4026 0L35.6712 9.93145L17.9398 0L0 10.0458V56.6368L18.6862 67.1062L35.6712 54.7608L52.6562 67.1062L71.3424 56.6368V10.0458L53.4026 0ZM53.4026 1.04223L70.4481 10.5904L53.4026 20.1386L36.357 10.5904L53.4026 1.04223ZM35.6712 10.9737L52.7167 20.5219L35.6712 30.07L18.6257 20.5219L35.6712 10.9737ZM35.3283 30.7223V52.5486L18.6257 43.1954V21.3691L35.3283 30.7223ZM17.9398 65.674L0.894302 56.1258V34.1852L17.9398 43.7333V65.674ZM17.9398 42.8054L0.894302 33.2572V11.4376L17.9398 20.9791V42.8054ZM0.894302 10.5837L17.9398 1.03551L34.9853 10.5837L17.9398 20.1319L0.894302 10.5837ZM52.7234 66.064L35.6779 53.6715L18.6324 66.064V44.1233L35.6779 53.6715L52.7234 44.1233V66.064ZM70.4548 56.1258L53.4093 65.674V42.8054L36.0208 52.5419V30.7155L53.4093 20.9791L70.4548 11.4376V56.1258Z" fill="white"/>
</svg>
