<svg xmlns="http://www.w3.org/2000/svg" width="60" height="60" viewBox="0 0 60 60" fill="none">
  <mask id="mask0_138_1480" style="mask-type:luminance" maskUnits="userSpaceOnUse" x="0" y="0" width="60" height="60">
    <path d="M60 0H0V60H60V0Z" fill="white"/>
  </mask>
  <g mask="url(#mask0_138_1480)">
    <path fill-rule="evenodd" clip-rule="evenodd" d="M60 30C60 46.5686 46.5686 60 30 60C13.4315 60 0 46.5686 0 30C0 13.4315 13.4315 0 30 0C46.5686 0 60 13.4315 60 30ZM31.0729 22.1458C28.155 23.3596 22.3232 25.8716 13.5776 29.6819C12.1574 30.2466 11.4135 30.7992 11.3458 31.3394C11.2313 32.2524 12.3746 32.6118 13.9315 33.1014C14.1433 33.168 14.3628 33.237 14.5877 33.3102C16.1194 33.8081 18.18 34.3905 19.2512 34.4137C20.2227 34.4347 21.3072 34.0341 22.5045 33.212C30.6758 27.6961 34.8937 24.9081 35.1586 24.8479C35.3454 24.8057 35.6043 24.7522 35.7798 24.9082C35.9552 25.0641 35.9379 25.3595 35.9193 25.4387C35.806 25.9215 31.3182 30.0939 28.9956 32.2532C28.2716 32.9262 27.7581 33.4037 27.6531 33.5127C27.4179 33.757 27.1782 33.988 26.9478 34.21C25.5247 35.582 24.4577 36.6106 27.0069 38.2906C28.232 39.0979 29.2122 39.7654 30.1902 40.4314C31.2584 41.1588 32.3235 41.8842 33.7019 42.7878C34.053 43.0179 34.3884 43.257 34.7151 43.4899C35.958 44.376 37.0747 45.1722 38.4543 45.0452C39.2561 44.9715 40.084 44.2176 40.5045 41.9696C41.4984 36.6564 43.452 25.1448 43.9034 20.4011C43.943 19.9854 43.8932 19.4535 43.8532 19.2201C43.8134 18.9866 43.7298 18.6539 43.4263 18.4076C43.0668 18.1159 42.5119 18.0544 42.2638 18.0588C41.1354 18.0788 39.4043 18.6807 31.0729 22.1458Z" fill="#1DCCC3"/>
  </g>
</svg>