<svg width="34" height="34" viewBox="0 0 34 34" fill="none" xmlns="http://www.w3.org/2000/svg">
<rect x="0.5" y="0.5" width="33" height="33" stroke="#1DCCC3"/>
<g clip-path="url(#clip0_110_995)">
<path d="M22.5505 27.8292C22.118 27.9753 21.6942 28.151 21.2523 28.2626C18.6785 28.914 15.8553 27.8774 14.1736 25.6637C13.8834 25.2819 13.634 24.8654 13.3847 24.4544C12.7701 23.4421 12.1987 22.4016 11.5487 21.4129C10.7116 20.1393 11.5126 19.0099 12.5457 18.7779C12.8478 18.7098 13.1639 18.6988 13.5031 18.6575C13.4606 18.5866 13.4154 18.5111 13.3698 18.435C12.5883 17.1478 11.7974 15.8662 11.0292 14.5711C10.7448 14.0926 10.4725 13.5991 10.2654 13.0854C9.94735 12.2965 10.269 11.2964 10.9365 10.8122C11.7123 10.2496 12.708 10.2633 13.4539 10.8772C13.6696 11.0543 13.861 11.2837 14.0113 11.5221C14.4359 12.1935 14.8334 12.882 15.2596 13.5936C15.601 13.0323 16.0552 12.6632 16.6895 12.5571C17.3153 12.453 17.8825 12.6271 18.4158 13.0401C18.7758 12.3659 19.311 11.9553 20.0682 11.894C20.8205 11.8333 21.438 12.1501 21.9546 12.7483C22.2462 12.243 22.6602 11.9144 23.2029 11.7694C24.0843 11.5334 25.0506 11.9452 25.5497 12.7709C26.3105 14.031 27.0733 15.2908 27.8175 16.5608C29.6213 19.6374 28.9489 23.4971 26.2617 25.5565C26.2185 25.5895 26.1856 25.636 26.1479 25.6759L22.5512 27.8303L22.5505 27.8292ZM14.2559 17.92C15.1995 19.4953 16.143 21.0706 17.0866 22.6458C17.3409 23.0704 17.3202 23.3891 17.0273 23.559C16.7404 23.7253 16.4658 23.5938 16.2139 23.182C15.6709 22.2942 15.1394 21.3994 14.575 20.526C14.1187 19.8206 13.3967 19.5861 12.6875 19.8602C12.2283 20.0382 12.1241 20.3603 12.3872 20.8009C13.0867 21.9699 13.7806 23.1422 14.4906 24.305C14.7011 24.6501 14.9365 24.9842 15.195 25.2943C16.8583 27.2932 19.8339 27.9891 22.0121 26.8439C23.1334 26.2543 24.2023 25.5659 25.292 24.9172C25.4427 24.8269 25.5858 24.7199 25.7212 24.6064C27.9648 22.7274 28.4312 19.6012 26.8597 16.9499C26.1478 15.7488 25.4271 14.5531 24.7085 13.356C24.369 12.7891 23.7602 12.5958 23.2521 12.8875C22.7434 13.1795 22.6015 13.802 22.9215 14.3751C23.0944 14.6851 23.289 14.9837 23.4636 15.2927C23.5953 15.5263 23.554 15.7894 23.3798 15.9546C23.2154 16.1098 22.9406 16.1308 22.7495 15.9809C22.6604 15.9111 22.5879 15.8101 22.5279 15.7111C22.1023 15.0094 21.6869 14.3009 21.257 13.6018C21.157 13.4399 21.0309 13.2795 20.8839 13.1631C20.488 12.8517 19.942 12.886 19.5812 13.2181C19.2415 13.5305 19.1615 14.0859 19.415 14.5204C19.8248 15.2221 20.2469 15.9156 20.6644 16.6126C20.7079 16.6852 20.7531 16.7568 20.7949 16.8304C20.9636 17.1295 20.9076 17.4433 20.6597 17.5957C20.4109 17.7478 20.1017 17.6576 19.9236 17.3626C19.3021 16.3339 18.6893 15.3008 18.0663 14.2731C17.9759 14.1236 17.8656 13.9757 17.7362 13.8623C17.3507 13.5257 16.7948 13.5209 16.4325 13.8318C16.033 14.1745 15.9441 14.7226 16.2276 15.2023C16.8357 16.2288 17.4521 17.2502 18.0651 18.2737C18.3191 18.6977 18.2972 19.0171 18.0031 19.1861C17.7161 19.3509 17.4403 19.2225 17.1909 18.806C15.8778 16.6139 14.5648 14.4217 13.2506 12.2302C13.1727 12.1001 13.0873 11.9713 12.9866 11.8596C12.6657 11.5017 12.1185 11.3875 11.7246 11.5855C11.3351 11.7809 11.1125 12.2536 11.2194 12.7089C11.2567 12.8689 11.3327 13.027 11.4177 13.1703C12.3616 14.7548 13.3113 16.3367 14.259 17.9189L14.2559 17.92Z" fill="white"/>
<path d="M8.73554 5.79655C9.14226 5.65001 9.54045 5.47543 9.95684 5.36257C13.012 4.53259 16.3146 6.04131 17.8718 8.98063C18.076 9.36661 18.2281 9.78219 18.3829 10.1922C18.5097 10.5291 18.3748 10.8175 18.0785 10.9129C17.7961 11.0039 17.5147 10.8386 17.3967 10.4862C17.1883 9.86518 16.8984 9.2898 16.5243 8.74911C15.0229 6.57823 12.0873 5.6184 9.75942 6.54631C6.87551 7.69597 5.52913 10.7849 6.57756 13.857C6.8684 14.7096 7.34423 15.4514 7.96171 16.1052C8.22744 16.3872 8.25659 16.7115 8.04165 16.9239C7.81016 17.1525 7.50905 17.1158 7.22579 16.8246C4.48304 14.0082 4.50758 9.37634 7.27885 6.84349C7.48503 6.65528 7.69842 6.47537 7.90828 6.29206C8.18385 6.127 8.45942 5.96194 8.73499 5.79688L8.73554 5.79655Z" fill="white"/>
<path d="M9.72747 8.35964C11.8563 7.1106 14.6071 8.05009 15.7185 10.4167C15.8587 10.7147 15.78 11.0081 15.5252 11.1426C15.2709 11.2767 14.9697 11.1785 14.8175 10.8869C14.5887 10.4486 14.3306 10.0389 13.9584 9.70694C12.7202 8.60178 10.9393 8.5888 9.77203 9.68178C8.64954 10.733 8.51828 12.5558 9.46873 13.8871C9.76307 14.2995 9.77256 14.5985 9.49804 14.8079C9.22463 15.0167 8.93381 14.917 8.63203 14.5121C7.33844 12.7771 7.56806 10.1677 9.13692 8.81439C9.32485 8.6521 9.53002 8.51106 9.72781 8.36022L9.72747 8.35964Z" fill="white"/>
</g>
<defs>
<clipPath id="clip0_110_995">
<rect width="26" height="26" fill="white" transform="translate(4 3)"/>
</clipPath>
</defs>
</svg>
