<svg width="348" height="168" viewBox="0 0 348 168" fill="none" xmlns="http://www.w3.org/2000/svg">
<path d="M1.81976 0H9.25866C10.4464 0 11.553 0.474616 12.2662 1.42384L38.7732 32.045C47.5573 21.8372 56.4176 11.6317 65.2803 1.42384C65.9123 0.632001 67.2575 0 68.2878 0H75.7243C76.7522 0 77.544 0.791845 77.544 1.81977V53.5674C77.544 54.5953 76.6735 55.3872 75.7243 55.3872H68.2878C67.2599 55.3872 66.4681 54.5953 66.4681 53.5674V18.7534C66.4681 17.8042 65.9148 17.5656 65.2803 18.3575C56.8135 28.0907 48.4254 37.8216 39.961 47.6335C39.6438 47.9508 39.2479 48.1868 38.7732 48.1868C38.3773 48.1868 37.9027 47.9483 37.5855 47.6335C29.1187 37.8216 20.7305 28.0883 12.2662 18.3575C11.6342 17.5656 11.0784 17.8042 11.0784 18.8321V53.5674C11.0784 54.5953 10.2866 55.3872 9.25866 55.3872H1.89846C0.870535 55.3872 0 54.5953 0 53.5674V1.81977C0 0.791845 0.791843 0 1.81976 0Z" fill="white"/>
<path d="M83.8735 11.0784C83.8735 4.98468 88.8582 0 94.952 0H128.185C134.279 0 139.263 4.98468 139.263 11.0784V44.3112C139.263 50.405 134.279 55.3896 128.185 55.3896H94.952C88.8582 55.3896 83.8735 50.405 83.8735 44.3112V11.0784ZM126.365 44.3112C127.393 44.3112 128.185 43.5194 128.185 42.4915V12.8982C128.185 11.8703 127.393 11.0784 126.365 11.0784H96.7717C95.7438 11.0784 94.952 11.8703 94.952 12.8982V42.4915C94.952 43.5194 95.7438 44.3112 96.7717 44.3112H126.365Z" fill="white"/>
<path d="M147.172 1.81977C147.172 0.870537 148.042 0 149.07 0H156.428C157.616 0 158.722 0.553308 159.514 1.42384L190.295 37.0297C190.534 37.2683 190.77 37.3469 191.087 37.2683C191.326 37.1896 191.483 36.8723 191.483 36.6363V1.81977C191.483 0.870537 192.354 0 193.303 0H200.742C201.77 0 202.562 0.870537 202.562 1.81977V53.5674C202.562 54.5167 201.77 55.3872 200.742 55.3872H193.303C192.354 55.3872 190.93 54.7552 190.295 53.9633C180.009 42.1742 169.722 30.2253 159.514 18.3575C158.801 17.5656 158.248 17.8042 158.248 18.8321V53.5674C158.248 54.5167 157.456 55.3872 156.428 55.3872H149.07C148.042 55.3872 147.172 54.5167 147.172 53.5674C147.172 36.319 147.251 19.0682 147.172 1.81977Z" fill="white"/>
<path d="M1.81976 56.152H53.5674C54.5953 56.152 55.3872 56.9438 55.3872 57.9717V65.4106C55.3872 66.4386 54.5953 67.2304 53.5674 67.2304H35.0526C34.0246 67.2304 33.2328 68.0222 33.2328 69.0502V109.722C33.2328 110.75 32.441 111.542 31.413 111.542H23.9741C22.9462 111.542 22.1544 110.75 22.1544 109.722V69.0502C22.1544 68.0222 21.3625 67.2304 20.3346 67.2304H1.81976C0.791843 67.2304 0 66.4386 0 65.4106V57.9717C0 56.9438 0.791843 56.152 1.81976 56.152Z" fill="white"/>
<path d="M62.5874 67.2304C62.5874 61.1367 67.5721 56.152 73.6658 56.152H106.899C112.992 56.152 117.977 61.1367 117.977 67.2304V109.722C117.977 110.75 117.185 111.542 116.157 111.542H108.718C107.69 111.542 106.899 110.75 106.899 109.722V102.283C106.899 101.255 106.107 100.463 105.079 100.463H75.4856C74.4577 100.463 73.6658 101.255 73.6658 102.283V109.722C73.6658 110.75 72.874 111.542 71.8461 111.542H64.4072C63.3792 111.542 62.5874 110.75 62.5874 109.722V67.2304ZM75.4856 67.2304C74.4577 67.2304 73.6658 68.0222 73.6658 69.0502V87.565C73.6658 88.5929 74.4577 89.3848 75.4856 89.3848H105.079C106.107 89.3848 106.899 88.5929 106.899 87.565V69.0502C106.899 68.0222 106.107 67.2304 105.079 67.2304H75.4856Z" fill="white"/>
<path d="M180.329 111.542H128.581C127.553 111.542 126.761 110.75 126.761 109.722V102.283C126.761 101.176 127.236 99.9886 128.185 99.2755L163.791 68.4157C163.948 68.337 164.027 68.0985 164.027 67.9411V67.7026C163.87 67.3853 163.631 67.228 163.395 67.228H128.579C127.551 67.228 126.759 66.4361 126.759 65.4082V57.9693C126.759 56.9414 127.551 56.1495 128.579 56.1495H180.326C181.354 56.1495 182.146 56.9414 182.146 57.9693V65.4082C182.146 66.5148 181.671 67.7026 180.722 68.4157L145.116 99.2755C144.959 99.3542 144.88 99.5927 144.88 99.7501V99.9886C145.038 100.306 145.276 100.463 145.512 100.463H180.329C181.357 100.463 182.148 101.255 182.148 102.283V109.722C182.148 110.75 181.357 111.542 180.329 111.542Z" fill="white"/>
<path d="M190.852 57.8931C190.852 56.8651 191.643 56.0733 192.671 56.0733H200.11C201.138 56.0733 201.93 56.8651 201.93 57.8931V76.4079C201.93 77.4358 202.722 78.2277 203.75 78.2277H233.343C234.371 78.2277 235.163 77.4358 235.163 76.4079V57.8931C235.163 56.8651 235.955 56.0733 236.983 56.0733H244.421C245.449 56.0733 246.241 56.8651 246.241 57.8931V109.641C246.241 110.669 245.449 111.46 244.421 111.46H236.983C235.955 111.46 235.163 110.669 235.163 109.641V91.1259C235.163 90.0979 234.371 89.3061 233.343 89.3061H203.75C202.722 89.3061 201.93 90.0979 201.93 91.1259V109.641C201.93 110.669 201.138 111.46 200.11 111.46H192.671C191.643 111.46 190.852 110.669 190.852 109.641V57.8931Z" fill="white"/>
<path d="M0 114.124C0 113.174 0.870535 112.304 1.89846 112.304H9.2562C10.444 112.304 11.5506 112.857 12.3424 113.728L43.1235 149.334C43.362 149.572 43.5981 149.651 43.9153 149.572C44.1538 149.494 44.3112 149.176 44.3112 148.94V114.124C44.3112 113.174 45.1818 112.304 46.131 112.304H53.5699C54.5978 112.304 55.3896 113.174 55.3896 114.124V165.871C55.3896 166.821 54.5978 167.691 53.5699 167.691H46.131C45.1818 167.691 43.7579 167.059 43.1235 166.267C32.8369 154.478 22.5503 142.529 12.3424 130.661C11.6293 129.87 11.076 130.108 11.076 131.136V165.871C11.076 166.821 10.2841 167.691 9.2562 167.691H1.89846C0.870535 167.691 0 166.821 0 165.871C0 148.623 0.0786925 131.372 0 114.124Z" fill="white"/>
<path d="M72.557 167.694H65.1181C64.0902 167.694 63.2983 166.902 63.2983 165.874V114.126C63.2983 113.098 64.0902 112.306 65.1181 112.306H72.557C73.5849 112.306 74.3768 113.098 74.3768 114.126V165.874C74.3768 166.902 73.5849 167.694 72.557 167.694Z" fill="white"/>
<path d="M82.2905 114.124C82.2905 113.096 83.0824 112.304 84.1103 112.304H91.5492C92.5771 112.304 93.3689 113.096 93.3689 114.124V132.639C93.3689 133.666 94.1608 134.458 95.1887 134.458H102.072C103.26 134.458 104.366 133.984 105.079 133.034L121.853 113.728C122.566 112.779 123.673 112.304 124.861 112.304H135.858C136.175 112.304 136.49 112.461 136.571 112.779C136.728 113.096 136.65 113.411 136.492 113.728L114.97 138.572C114.257 139.364 114.257 140.631 114.97 141.42L136.492 166.265C136.65 166.582 136.728 166.897 136.571 167.214C136.492 167.531 136.175 167.689 135.858 167.689H124.861C123.673 167.689 122.566 167.214 121.853 166.265L105.079 146.958C104.366 146.009 103.26 145.534 102.072 145.534H95.1887C94.1608 145.534 93.3689 146.326 93.3689 147.354V165.869C93.3689 166.897 92.5771 167.689 91.5492 167.689H84.1103C83.0824 167.689 82.2905 166.897 82.2905 165.869V114.121V114.124Z" fill="white"/>
<path d="M212.6 33.32V28.28C212.6 27.356 213.356 26.6 214.28 26.6H219.884C220.04 26.6 220.16 26.72 220.16 26.876V28.004C220.16 28.16 220.04 28.28 219.884 28.28H214.556C214.4 28.28 214.28 28.4 214.28 28.556V33.044C214.28 33.2 214.4 33.32 214.556 33.32H219.884C220.04 33.32 220.16 33.44 220.16 33.596V34.724C220.16 34.88 220.04 35 219.884 35H214.28C213.356 35 212.6 34.244 212.6 33.32ZM221.26 26.876C221.26 26.72 221.38 26.6 221.536 26.6H229.384C229.54 26.6 229.66 26.72 229.66 26.876V28.004C229.66 28.16 229.54 28.28 229.384 28.28H226.576C226.42 28.28 226.3 28.4 226.3 28.556V34.724C226.3 34.88 226.18 35 226.024 35H224.896C224.74 35 224.62 34.88 224.62 34.724V28.556C224.62 28.4 224.5 28.28 224.344 28.28H221.536C221.38 28.28 221.26 28.16 221.26 28.004V26.876ZM237.079 28.28H232.591C232.435 28.28 232.315 28.4 232.315 28.556V31.364C232.315 31.52 232.435 31.64 232.591 31.64H237.079C237.235 31.64 237.355 31.52 237.355 31.364V28.556C237.355 28.4 237.235 28.28 237.079 28.28ZM230.635 34.724V28.28C230.635 27.356 231.391 26.6 232.315 26.6H237.355C238.279 26.6 239.035 27.356 239.035 28.28V31.64C239.035 32.564 238.279 33.32 237.355 33.32H232.591C232.435 33.32 232.315 33.44 232.315 33.596V34.724C232.315 34.88 232.195 35 232.039 35H230.911C230.755 35 230.635 34.88 230.635 34.724ZM240.245 33.32V28.28C240.245 27.356 241.001 26.6 241.925 26.6H246.965C247.889 26.6 248.645 27.356 248.645 28.28V33.32C248.645 34.244 247.889 35 246.965 35H241.925C241.001 35 240.245 34.244 240.245 33.32ZM242.201 33.32H246.689C246.845 33.32 246.965 33.2 246.965 33.044V28.556C246.965 28.4 246.845 28.28 246.689 28.28H242.201C242.045 28.28 241.925 28.4 241.925 28.556V33.044C241.925 33.2 242.045 33.32 242.201 33.32ZM258.242 34.724C258.242 34.868 258.11 35 257.954 35H256.838C256.682 35 256.562 34.868 256.562 34.724V29.456C256.562 29.3 256.478 29.264 256.37 29.384C254.822 31.184 253.262 32.996 251.702 34.784C251.606 34.904 251.39 35 251.246 35H250.118C249.962 35 249.842 34.868 249.842 34.724V26.876C249.842 26.732 249.962 26.6 250.118 26.6H251.246C251.39 26.6 251.522 26.732 251.522 26.876V32.156C251.522 32.192 251.546 32.24 251.582 32.252C251.63 32.264 251.666 32.252 251.702 32.216L256.37 26.816C256.49 26.684 256.658 26.6 256.838 26.6H257.954C258.11 26.6 258.242 26.732 258.242 26.876C258.23 29.492 258.242 32.108 258.242 34.724ZM259.44 26.876C259.44 26.72 259.56 26.6 259.716 26.6H260.844C261.024 26.6 261.192 26.672 261.3 26.816L265.32 31.46C266.652 29.912 267.996 28.364 269.34 26.816C269.436 26.696 269.64 26.6 269.796 26.6H270.924C271.08 26.6 271.2 26.72 271.2 26.876V34.724C271.2 34.88 271.068 35 270.924 35H269.796C269.64 35 269.52 34.88 269.52 34.724V29.444C269.52 29.3 269.436 29.264 269.34 29.384C268.056 30.86 266.784 32.336 265.5 33.824C265.452 33.872 265.392 33.908 265.32 33.908C265.26 33.908 265.188 33.872 265.14 33.824C263.856 32.336 262.584 30.86 261.3 29.384C261.204 29.264 261.12 29.3 261.12 29.456V34.724C261.12 34.88 261 35 260.844 35H259.728C259.572 35 259.44 34.88 259.44 34.724V26.876ZM275.401 33.32V28.28C275.401 27.356 276.157 26.6 277.081 26.6H282.685C282.841 26.6 282.961 26.72 282.961 26.876V28.004C282.961 28.16 282.841 28.28 282.685 28.28H277.357C277.201 28.28 277.081 28.4 277.081 28.556V33.044C277.081 33.2 277.201 33.32 277.357 33.32H282.685C282.841 33.32 282.961 33.44 282.961 33.596V34.724C282.961 34.88 282.841 35 282.685 35H277.081C276.157 35 275.401 34.244 275.401 33.32ZM284.178 26.876C284.178 26.72 284.298 26.6 284.454 26.6H285.582C285.762 26.6 285.93 26.672 286.038 26.816L290.058 31.46C291.39 29.912 292.734 28.364 294.078 26.816C294.174 26.696 294.378 26.6 294.534 26.6H295.662C295.818 26.6 295.938 26.72 295.938 26.876V34.724C295.938 34.88 295.806 35 295.662 35H294.534C294.378 35 294.258 34.88 294.258 34.724V29.444C294.258 29.3 294.174 29.264 294.078 29.384C292.794 30.86 291.522 32.336 290.238 33.824C290.19 33.872 290.13 33.908 290.058 33.908C289.998 33.908 289.926 33.872 289.878 33.824C288.594 32.336 287.322 30.86 286.038 29.384C285.942 29.264 285.858 29.3 285.858 29.456V34.724C285.858 34.88 285.738 35 285.582 35H284.466C284.31 35 284.178 34.88 284.178 34.724V26.876ZM303.583 29.96H299.095C298.939 29.96 298.819 30.08 298.819 30.236V33.044C298.819 33.2 298.939 33.32 299.095 33.32H303.583C303.739 33.32 303.859 33.2 303.859 33.044V30.236C303.859 30.08 303.739 29.96 303.583 29.96ZM297.139 33.32V26.876C297.139 26.72 297.259 26.6 297.415 26.6H298.543C298.699 26.6 298.819 26.72 298.819 26.876V28.004C298.819 28.16 298.939 28.28 299.095 28.28H303.859C304.783 28.28 305.539 29.036 305.539 29.96V33.32C305.539 34.244 304.783 35 303.859 35H298.819C297.895 35 297.139 34.244 297.139 33.32ZM306.379 34.724V26.876C306.379 26.72 306.499 26.6 306.655 26.6H307.783C307.939 26.6 308.059 26.72 308.059 26.876V34.724C308.059 34.88 307.939 35 307.783 35H306.655C306.499 35 306.379 34.88 306.379 34.724ZM309.034 33.32V28.28C309.034 27.356 309.79 26.6 310.714 26.6H316.318C316.474 26.6 316.594 26.72 316.594 26.876V28.004C316.594 28.16 316.474 28.28 316.318 28.28H310.99C310.834 28.28 310.714 28.4 310.714 28.556V33.044C310.714 33.2 310.834 33.32 310.99 33.32H316.318C316.474 33.32 316.594 33.44 316.594 33.596V34.724C316.594 34.88 316.474 35 316.318 35H310.714C309.79 35 309.034 34.244 309.034 33.32ZM319.317 28.28C319.581 27.284 320.469 26.6 321.501 26.6H325.629C325.785 26.6 325.917 26.72 325.917 26.876V34.724C325.917 34.88 325.785 35 325.629 35H324.513C324.357 35 324.237 34.88 324.237 34.724V28.556C324.237 28.4 324.105 28.28 323.949 28.28H321.333C321.165 28.28 321.021 28.388 320.985 28.556L319.329 34.724C319.281 34.892 319.137 35 318.969 35H317.793C317.721 35 317.661 34.964 317.625 34.916C317.577 34.868 317.565 34.796 317.589 34.724L319.317 28.28ZM333.56 29.96H329.072C328.916 29.96 328.796 30.08 328.796 30.236V33.044C328.796 33.2 328.916 33.32 329.072 33.32H333.56C333.716 33.32 333.836 33.2 333.836 33.044V30.236C333.836 30.08 333.716 29.96 333.56 29.96ZM327.116 33.32V26.876C327.116 26.72 327.236 26.6 327.392 26.6H328.52C328.676 26.6 328.796 26.72 328.796 26.876V28.004C328.796 28.16 328.916 28.28 329.072 28.28H333.836C334.76 28.28 335.516 29.036 335.516 29.96V33.32C335.516 34.244 334.76 35 333.836 35H328.796C327.872 35 327.116 34.244 327.116 33.32ZM336.356 34.724V26.876C336.356 26.72 336.476 26.6 336.632 26.6H337.76C337.916 26.6 338.036 26.72 338.036 26.876V34.724C338.036 34.88 337.916 35 337.76 35H336.632C336.476 35 336.356 34.88 336.356 34.724ZM339.842 33.608C339.842 33.452 339.962 33.32 340.118 33.32H341.246C341.402 33.32 341.522 33.452 341.522 33.608V34.724C341.522 34.892 341.426 35.048 341.27 35.132L339.842 35.84V33.608ZM219.044 40.28H214.556C214.4 40.28 214.28 40.4 214.28 40.556V43.364C214.28 43.52 214.4 43.64 214.556 43.64H219.044C219.2 43.64 219.32 43.52 219.32 43.364V40.556C219.32 40.4 219.2 40.28 219.044 40.28ZM212.6 46.724V40.28C212.6 39.356 213.356 38.6 214.28 38.6H219.32C220.244 38.6 221 39.356 221 40.28V46.724C221 46.88 220.88 47 220.724 47H219.596C219.44 47 219.32 46.88 219.32 46.724V45.596C219.32 45.44 219.2 45.32 219.044 45.32H214.556C214.4 45.32 214.28 45.44 214.28 45.596V46.724C214.28 46.88 214.16 47 214.004 47H212.876C212.72 47 212.6 46.88 212.6 46.724ZM225.198 46.712V38.864C225.198 38.708 225.318 38.588 225.474 38.588H226.602C226.758 38.588 226.878 38.708 226.878 38.864V41.672C226.878 41.828 226.998 41.948 227.154 41.948H231.642C231.798 41.948 231.918 41.828 231.918 41.672V38.864C231.918 38.708 232.038 38.588 232.194 38.588H233.322C233.478 38.588 233.598 38.708 233.598 38.864V46.712C233.598 46.868 233.478 46.988 233.322 46.988H232.194C232.038 46.988 231.918 46.868 231.918 46.712V43.904C231.918 43.748 231.798 43.628 231.642 43.628H227.154C226.998 43.628 226.878 43.748 226.878 43.904V46.712C226.878 46.868 226.758 46.988 226.602 46.988H225.474C225.318 46.988 225.198 46.868 225.198 46.712ZM234.573 45.32V40.28C234.573 39.356 235.329 38.6 236.253 38.6H241.857C242.013 38.6 242.133 38.72 242.133 38.876V40.004C242.133 40.16 242.013 40.28 241.857 40.28H236.529C236.373 40.28 236.253 40.4 236.253 40.556V41.684C236.253 41.84 236.373 41.96 236.529 41.96H241.857C242.013 41.96 242.133 42.08 242.133 42.236V43.364C242.133 43.52 242.013 43.64 241.857 43.64H236.529C236.373 43.64 236.253 43.76 236.253 43.916V45.044C236.253 45.2 236.373 45.32 236.529 45.32H241.857C242.013 45.32 242.133 45.44 242.133 45.596V46.724C242.133 46.88 242.013 47 241.857 47H236.253C235.329 47 234.573 46.244 234.573 45.32ZM246.35 45.32V40.28C246.35 39.356 247.106 38.6 248.03 38.6H253.634C253.79 38.6 253.91 38.72 253.91 38.876V40.004C253.91 40.16 253.79 40.28 253.634 40.28H248.306C248.15 40.28 248.03 40.4 248.03 40.556V45.044C248.03 45.2 248.15 45.32 248.306 45.32H253.634C253.79 45.32 253.91 45.44 253.91 45.596V46.724C253.91 46.88 253.79 47 253.634 47H248.03C247.106 47 246.35 46.244 246.35 45.32ZM255.01 38.876C255.01 38.72 255.13 38.6 255.286 38.6H263.134C263.29 38.6 263.41 38.72 263.41 38.876V40.004C263.41 40.16 263.29 40.28 263.134 40.28H260.326C260.17 40.28 260.05 40.4 260.05 40.556V46.724C260.05 46.88 259.93 47 259.774 47H258.646C258.49 47 258.37 46.88 258.37 46.724V40.556C258.37 40.4 258.25 40.28 258.094 40.28H255.286C255.13 40.28 255.01 40.16 255.01 40.004V38.876ZM264.385 45.32V40.28C264.385 39.356 265.141 38.6 266.065 38.6H271.669C271.825 38.6 271.945 38.72 271.945 38.876V40.004C271.945 40.16 271.825 40.28 271.669 40.28H266.341C266.185 40.28 266.065 40.4 266.065 40.556V41.684C266.065 41.84 266.185 41.96 266.341 41.96H271.669C271.825 41.96 271.945 42.08 271.945 42.236V43.364C271.945 43.52 271.825 43.64 271.669 43.64H266.341C266.185 43.64 266.065 43.76 266.065 43.916V45.044C266.065 45.2 266.185 45.32 266.341 45.32H271.669C271.825 45.32 271.945 45.44 271.945 45.596V46.724C271.945 46.88 271.825 47 271.669 47H266.065C265.141 47 264.385 46.244 264.385 45.32ZM273.163 46.712V38.864C273.163 38.708 273.283 38.588 273.439 38.588H274.567C274.723 38.588 274.843 38.708 274.843 38.864V41.672C274.843 41.828 274.963 41.948 275.119 41.948H279.607C279.763 41.948 279.883 41.828 279.883 41.672V38.864C279.883 38.708 280.003 38.588 280.159 38.588H281.287C281.443 38.588 281.563 38.708 281.563 38.864V46.712C281.563 46.868 281.443 46.988 281.287 46.988H280.159C280.003 46.988 279.883 46.868 279.883 46.712V43.904C279.883 43.748 279.763 43.628 279.607 43.628H275.119C274.963 43.628 274.843 43.748 274.843 43.904V46.712C274.843 46.868 274.723 46.988 274.567 46.988H273.439C273.283 46.988 273.163 46.868 273.163 46.712ZM289.819 40.28H285.331C285.175 40.28 285.055 40.4 285.055 40.556V45.044C285.055 45.2 285.175 45.32 285.331 45.32H289.819C289.975 45.32 290.095 45.2 290.095 45.044V40.556C290.095 40.4 289.975 40.28 289.819 40.28ZM283.375 45.044V40.28C283.375 39.356 284.131 38.6 285.055 38.6H290.095C291.019 38.6 291.775 39.356 291.775 40.28V45.044C291.775 45.2 291.895 45.32 292.051 45.32H292.339C292.495 45.32 292.615 45.44 292.615 45.596V46.724C292.615 46.88 292.495 47 292.339 47H282.811C282.655 47 282.535 46.88 282.535 46.724V45.596C282.535 45.44 282.655 45.32 282.811 45.32H283.099C283.255 45.32 283.375 45.2 283.375 45.044ZM299.774 41.96H295.286C295.13 41.96 295.01 42.08 295.01 42.236V45.044C295.01 45.2 295.13 45.32 295.286 45.32H299.774C299.93 45.32 300.05 45.2 300.05 45.044V42.236C300.05 42.08 299.93 41.96 299.774 41.96ZM293.33 45.32V38.876C293.33 38.72 293.45 38.6 293.606 38.6H294.734C294.89 38.6 295.01 38.72 295.01 38.876V40.004C295.01 40.16 295.13 40.28 295.286 40.28H300.05C300.974 40.28 301.73 41.036 301.73 41.96V45.32C301.73 46.244 300.974 47 300.05 47H295.01C294.086 47 293.33 46.244 293.33 45.32ZM302.57 46.724V38.876C302.57 38.72 302.69 38.6 302.846 38.6H303.974C304.13 38.6 304.25 38.72 304.25 38.876V46.724C304.25 46.88 304.13 47 303.974 47H302.846C302.69 47 302.57 46.88 302.57 46.724Z" fill="#1D1D1B"/>
<path d="M325.054 98.9971C318.835 102.66 310.834 111.403 307.886 115.864C317.56 124.118 337.168 139.707 338.209 136.03C339.509 131.433 339.545 113.294 338.209 104.187C336.871 95.0677 333.675 93.9185 325.054 98.9971Z" fill="white" stroke="#1D1D1B" stroke-width="2.21985"/>
<path d="M329.769 100.77C325.623 104.378 320.289 112.991 318.323 117.385C324.773 125.516 337.845 140.872 338.538 137.25C339.406 132.722 339.429 114.853 338.538 105.882C337.647 96.899 335.516 95.767 329.769 100.77Z" stroke="#1D1D1B" stroke-width="2.21985"/>
<path d="M278.399 98.9971C284.617 102.66 292.619 111.403 295.567 115.864C285.893 124.118 266.285 139.707 265.244 136.03C263.943 131.433 263.908 113.294 265.244 104.187C266.582 95.0677 269.778 93.9185 278.399 98.9971Z" fill="white" stroke="#1D1D1B" stroke-width="2.21985"/>
<path d="M273.962 100.77C278.229 104.378 283.72 112.991 285.744 117.385C279.105 125.516 265.648 140.872 264.934 137.25C264.041 132.722 264.017 114.853 264.934 105.882C265.852 96.899 268.045 95.767 273.962 100.77Z" stroke="#1D1D1B" stroke-width="2.21985"/>
<path d="M339.276 138.702C339.276 146.793 333.763 154.171 324.839 158.986C318.186 162.576 310.111 166.89 301.4 166.89C292.688 166.89 284.614 162.576 277.961 158.986C269.036 154.171 263.523 146.793 263.523 138.702C263.523 131.727 267.612 125.293 274.464 120.556C281.311 115.822 290.831 112.858 301.4 112.858C311.968 112.858 321.488 115.822 328.336 120.556C335.188 125.293 339.276 131.727 339.276 138.702Z" fill="white" stroke="#1D1D1B" stroke-width="2.21985"/>
<path fill-rule="evenodd" clip-rule="evenodd" d="M263.053 143.588C263.701 135.915 267.363 132.765 274.406 127.593C283.329 121.038 289.055 121.37 290.654 121.48C291.184 121.517 291.893 121.897 292.804 122.385C294.641 123.37 297.299 124.794 300.953 124.721C304.086 124.657 306.34 123.602 308.238 122.713C309.653 122.051 310.87 121.48 312.108 121.48C315.008 121.48 322.184 122.769 327.873 127.593C328.722 128.312 329.581 129.004 330.429 129.687C335.203 133.531 339.618 137.086 339.732 143.644C337.222 153.006 327.714 160.67 315.101 163.944C313.699 164.196 312.461 164.438 311.313 164.663C307.393 165.432 304.531 165.993 299.821 165.993C295.837 165.993 293.742 165.244 291.639 164.493C289.735 163.813 287.826 163.131 284.505 163C273.472 159.326 265.325 152.167 263.053 143.588Z" fill="#1D1D1B"/>
<path fill-rule="evenodd" clip-rule="evenodd" d="M261.8 135.894C261.8 134.957 262.56 134.197 263.497 134.197H339.303C340.24 134.197 341 134.957 341 135.894C341 136.831 340.24 137.591 339.303 137.591H334.825C335.025 143.434 332.566 153.156 324.434 153.934C312.201 155.104 304.23 151.634 304.276 137.591H301.409C301.454 151.634 293.484 155.104 281.251 153.934C273.119 153.156 270.66 143.434 270.86 137.591H263.497C262.56 137.591 261.8 136.831 261.8 135.894Z" fill="#1DCCC3"/>
<path d="M298.632 154.291C298.632 158.228 303.564 159.447 306.311 158.006" stroke="white" stroke-width="2.21985"/>
</svg>
