<svg xmlns="http://www.w3.org/2000/svg" xmlns:xlink="http://www.w3.org/1999/xlink"><defs>
<clipPath id="clip0_110_995">
<rect width="26" height="26" fill="white" transform="translate(4 3)"/>
</clipPath>
</defs><symbol id="arrow-top" viewBox="0 0 11 12">
<path d="M0.557617 10.9891L10.3364 1.2103M10.3364 1.2103H0.557617M10.3364 1.2103V10.9891" stroke="white" stroke-width="0.698487"/>
</symbol><symbol id="tg-large" viewBox="0 0 60 60">
  <mask id="mask0_138_1480" style="mask-type:luminance" maskUnits="userSpaceOnUse" x="0" y="0" width="60" height="60">
    <path d="M60 0H0V60H60V0Z" fill="white"/>
  </mask>
  <g mask="url(#mask0_138_1480)">
    <path fill-rule="evenodd" clip-rule="evenodd" d="M60 30C60 46.5686 46.5686 60 30 60C13.4315 60 0 46.5686 0 30C0 13.4315 13.4315 0 30 0C46.5686 0 60 13.4315 60 30ZM31.0729 22.1458C28.155 23.3596 22.3232 25.8716 13.5776 29.6819C12.1574 30.2466 11.4135 30.7992 11.3458 31.3394C11.2313 32.2524 12.3746 32.6118 13.9315 33.1014C14.1433 33.168 14.3628 33.237 14.5877 33.3102C16.1194 33.8081 18.18 34.3905 19.2512 34.4137C20.2227 34.4347 21.3072 34.0341 22.5045 33.212C30.6758 27.6961 34.8937 24.9081 35.1586 24.8479C35.3454 24.8057 35.6043 24.7522 35.7798 24.9082C35.9552 25.0641 35.9379 25.3595 35.9193 25.4387C35.806 25.9215 31.3182 30.0939 28.9956 32.2532C28.2716 32.9262 27.7581 33.4037 27.6531 33.5127C27.4179 33.757 27.1782 33.988 26.9478 34.21C25.5247 35.582 24.4577 36.6106 27.0069 38.2906C28.232 39.0979 29.2122 39.7654 30.1902 40.4314C31.2584 41.1588 32.3235 41.8842 33.7019 42.7878C34.053 43.0179 34.3884 43.257 34.7151 43.4899C35.958 44.376 37.0747 45.1722 38.4543 45.0452C39.2561 44.9715 40.084 44.2176 40.5045 41.9696C41.4984 36.6564 43.452 25.1448 43.9034 20.4011C43.943 19.9854 43.8932 19.4535 43.8532 19.2201C43.8134 18.9866 43.7298 18.6539 43.4263 18.4076C43.0668 18.1159 42.5119 18.0544 42.2638 18.0588C41.1354 18.0788 39.4043 18.6807 31.0729 22.1458Z" fill="#1DCCC3"/>
  </g>
</symbol><symbol id="tg" viewBox="0 0 38 38">
<path fill-rule="evenodd" clip-rule="evenodd" d="M38 19C38 29.4934 29.4934 38 19 38C8.50659 38 0 29.4934 0 19C0 8.50659 8.50659 0 19 0C29.4934 0 38 8.50659 38 19ZM19.6795 14.0257C17.8315 14.7944 14.138 16.3853 8.59914 18.7985C7.69971 19.1562 7.22856 19.5062 7.18567 19.8483C7.11317 20.4265 7.83727 20.6541 8.82331 20.9642C8.95744 21.0064 9.09641 21.0501 9.23888 21.0965C10.209 21.4118 11.514 21.7806 12.1924 21.7954C12.8077 21.8087 13.4946 21.5549 14.2529 21.0342C19.428 17.5409 22.0994 15.7751 22.2671 15.737C22.3854 15.7102 22.5494 15.6764 22.6605 15.7752C22.7716 15.8739 22.7607 16.061 22.7489 16.1111C22.6772 16.417 19.8349 19.0595 18.3639 20.427C17.9053 20.8533 17.5801 21.1556 17.5136 21.2247C17.3647 21.3795 17.2129 21.5258 17.0669 21.6664C16.1657 22.5352 15.4898 23.1867 17.1044 24.2507C17.8802 24.762 18.5011 25.1848 19.1205 25.6066C19.797 26.0672 20.4715 26.5267 21.3445 27.0989C21.5669 27.2447 21.7793 27.3961 21.9862 27.5436C22.7734 28.1048 23.4807 28.6091 24.3544 28.5286C24.8622 28.4819 25.3866 28.0045 25.6528 26.5807C26.2823 23.2157 27.5196 15.925 27.8055 12.9207C27.8305 12.6574 27.799 12.3205 27.7737 12.1727C27.7485 12.0248 27.6955 11.8141 27.5034 11.6581C27.2756 11.4734 26.9242 11.4345 26.7671 11.4372C26.0524 11.4499 24.956 11.8311 19.6795 14.0257Z" fill="#1D1D1B"/>
</symbol><symbol id="touch" viewBox="0 0 34 34">
<rect x="0.5" y="0.5" width="33" height="33" stroke="#1DCCC3"/>
<g clip-path="url(#clip0_110_995)">
<path d="M22.5505 27.8292C22.118 27.9753 21.6942 28.151 21.2523 28.2626C18.6785 28.914 15.8553 27.8774 14.1736 25.6637C13.8834 25.2819 13.634 24.8654 13.3847 24.4544C12.7701 23.4421 12.1987 22.4016 11.5487 21.4129C10.7116 20.1393 11.5126 19.0099 12.5457 18.7779C12.8478 18.7098 13.1639 18.6988 13.5031 18.6575C13.4606 18.5866 13.4154 18.5111 13.3698 18.435C12.5883 17.1478 11.7974 15.8662 11.0292 14.5711C10.7448 14.0926 10.4725 13.5991 10.2654 13.0854C9.94735 12.2965 10.269 11.2964 10.9365 10.8122C11.7123 10.2496 12.708 10.2633 13.4539 10.8772C13.6696 11.0543 13.861 11.2837 14.0113 11.5221C14.4359 12.1935 14.8334 12.882 15.2596 13.5936C15.601 13.0323 16.0552 12.6632 16.6895 12.5571C17.3153 12.453 17.8825 12.6271 18.4158 13.0401C18.7758 12.3659 19.311 11.9553 20.0682 11.894C20.8205 11.8333 21.438 12.1501 21.9546 12.7483C22.2462 12.243 22.6602 11.9144 23.2029 11.7694C24.0843 11.5334 25.0506 11.9452 25.5497 12.7709C26.3105 14.031 27.0733 15.2908 27.8175 16.5608C29.6213 19.6374 28.9489 23.4971 26.2617 25.5565C26.2185 25.5895 26.1856 25.636 26.1479 25.6759L22.5512 27.8303L22.5505 27.8292ZM14.2559 17.92C15.1995 19.4953 16.143 21.0706 17.0866 22.6458C17.3409 23.0704 17.3202 23.3891 17.0273 23.559C16.7404 23.7253 16.4658 23.5938 16.2139 23.182C15.6709 22.2942 15.1394 21.3994 14.575 20.526C14.1187 19.8206 13.3967 19.5861 12.6875 19.8602C12.2283 20.0382 12.1241 20.3603 12.3872 20.8009C13.0867 21.9699 13.7806 23.1422 14.4906 24.305C14.7011 24.6501 14.9365 24.9842 15.195 25.2943C16.8583 27.2932 19.8339 27.9891 22.0121 26.8439C23.1334 26.2543 24.2023 25.5659 25.292 24.9172C25.4427 24.8269 25.5858 24.7199 25.7212 24.6064C27.9648 22.7274 28.4312 19.6012 26.8597 16.9499C26.1478 15.7488 25.4271 14.5531 24.7085 13.356C24.369 12.7891 23.7602 12.5958 23.2521 12.8875C22.7434 13.1795 22.6015 13.802 22.9215 14.3751C23.0944 14.6851 23.289 14.9837 23.4636 15.2927C23.5953 15.5263 23.554 15.7894 23.3798 15.9546C23.2154 16.1098 22.9406 16.1308 22.7495 15.9809C22.6604 15.9111 22.5879 15.8101 22.5279 15.7111C22.1023 15.0094 21.6869 14.3009 21.257 13.6018C21.157 13.4399 21.0309 13.2795 20.8839 13.1631C20.488 12.8517 19.942 12.886 19.5812 13.2181C19.2415 13.5305 19.1615 14.0859 19.415 14.5204C19.8248 15.2221 20.2469 15.9156 20.6644 16.6126C20.7079 16.6852 20.7531 16.7568 20.7949 16.8304C20.9636 17.1295 20.9076 17.4433 20.6597 17.5957C20.4109 17.7478 20.1017 17.6576 19.9236 17.3626C19.3021 16.3339 18.6893 15.3008 18.0663 14.2731C17.9759 14.1236 17.8656 13.9757 17.7362 13.8623C17.3507 13.5257 16.7948 13.5209 16.4325 13.8318C16.033 14.1745 15.9441 14.7226 16.2276 15.2023C16.8357 16.2288 17.4521 17.2502 18.0651 18.2737C18.3191 18.6977 18.2972 19.0171 18.0031 19.1861C17.7161 19.3509 17.4403 19.2225 17.1909 18.806C15.8778 16.6139 14.5648 14.4217 13.2506 12.2302C13.1727 12.1001 13.0873 11.9713 12.9866 11.8596C12.6657 11.5017 12.1185 11.3875 11.7246 11.5855C11.3351 11.7809 11.1125 12.2536 11.2194 12.7089C11.2567 12.8689 11.3327 13.027 11.4177 13.1703C12.3616 14.7548 13.3113 16.3367 14.259 17.9189L14.2559 17.92Z" fill="white"/>
<path d="M8.73554 5.79655C9.14226 5.65001 9.54045 5.47543 9.95684 5.36257C13.012 4.53259 16.3146 6.04131 17.8718 8.98063C18.076 9.36661 18.2281 9.78219 18.3829 10.1922C18.5097 10.5291 18.3748 10.8175 18.0785 10.9129C17.7961 11.0039 17.5147 10.8386 17.3967 10.4862C17.1883 9.86518 16.8984 9.2898 16.5243 8.74911C15.0229 6.57823 12.0873 5.6184 9.75942 6.54631C6.87551 7.69597 5.52913 10.7849 6.57756 13.857C6.8684 14.7096 7.34423 15.4514 7.96171 16.1052C8.22744 16.3872 8.25659 16.7115 8.04165 16.9239C7.81016 17.1525 7.50905 17.1158 7.22579 16.8246C4.48304 14.0082 4.50758 9.37634 7.27885 6.84349C7.48503 6.65528 7.69842 6.47537 7.90828 6.29206C8.18385 6.127 8.45942 5.96194 8.73499 5.79688L8.73554 5.79655Z" fill="white"/>
<path d="M9.72747 8.35964C11.8563 7.1106 14.6071 8.05009 15.7185 10.4167C15.8587 10.7147 15.78 11.0081 15.5252 11.1426C15.2709 11.2767 14.9697 11.1785 14.8175 10.8869C14.5887 10.4486 14.3306 10.0389 13.9584 9.70694C12.7202 8.60178 10.9393 8.5888 9.77203 9.68178C8.64954 10.733 8.51828 12.5558 9.46873 13.8871C9.76307 14.2995 9.77256 14.5985 9.49804 14.8079C9.22463 15.0167 8.93381 14.917 8.63203 14.5121C7.33844 12.7771 7.56806 10.1677 9.13692 8.81439C9.32485 8.6521 9.53002 8.51106 9.72781 8.36022L9.72747 8.35964Z" fill="white"/>
</g>

</symbol><symbol id="whatsapp-large" viewBox="0 0 60 60">
  <path fill-rule="evenodd" clip-rule="evenodd" d="M60 30C60 46.5685 46.5685 60 30 60C13.4315 60 0 46.5685 0 30C0 13.4315 13.4315 0 30 0C46.5685 0 60 13.4315 60 30ZM12.373 47.1562C12.5718 46.4317 12.7693 45.7115 12.9658 44.9945C13.5929 42.7066 14.211 40.4519 14.8351 38.1983C14.9182 37.8974 14.9268 37.648 14.7635 37.3509C10.6457 29.8883 12.3415 20.447 18.7991 14.8751C22.5442 11.6449 26.9075 10.1765 31.8345 10.401C40.0185 10.7736 47.2279 17.1012 48.6926 25.1686C50.4247 34.7111 44.6971 43.8103 35.3714 46.2609C30.9088 47.4342 26.597 46.9211 22.4726 44.8584C22.186 44.7151 21.9414 44.6673 21.6213 44.7533C19.207 45.4002 16.7887 46.0339 14.3709 46.6676L12.8498 47.0663C12.7633 47.0894 12.6744 47.1043 12.5662 47.1224C12.5082 47.1322 12.4447 47.1428 12.373 47.1562ZM16.7765 42.8148C17.2734 42.686 17.7644 42.5598 18.2509 42.4347C19.5395 42.1034 20.7962 41.7803 22.0474 41.439C22.3914 41.3454 22.6436 41.4018 22.9359 41.5747C26.3133 43.5744 29.939 44.2154 33.7883 43.4588C42.7548 41.696 48.1279 32.1497 45.0267 23.5272C42.1873 15.6318 33.6164 11.5771 25.6713 14.3707C19.9198 16.3913 15.8392 21.9126 15.631 27.9794C15.523 31.1417 16.295 34.0767 18.0042 36.749C18.2277 37.0987 18.2774 37.4006 18.1609 37.8028C17.8154 38.9964 17.4896 40.1951 17.1559 41.4227C17.031 41.8823 16.905 42.3459 16.7765 42.8148ZM22.0001 24.3102C22 24.3111 22 24.3119 22 24.3128V24.3099C22 24.31 22 24.3101 22.0001 24.3102ZM22.0001 24.3102C22.0237 24.4598 22.0442 24.6101 22.0647 24.7604C22.1106 25.0962 22.1565 25.432 22.2369 25.7592C22.6057 27.2535 23.4407 28.506 24.3512 29.7146C26.4952 32.5626 29.0107 34.9521 32.4043 36.261C32.4352 36.2729 32.466 36.2849 32.4968 36.2968C33.813 36.8059 35.1298 37.3153 36.588 37.1725C38.4701 36.9881 40.657 35.7757 40.5567 33.2152C40.5481 32.9773 40.3809 32.6314 40.187 32.5311C39.1869 32.0139 38.1683 31.5318 37.1499 31.0498C36.923 30.9424 36.6962 30.8351 36.4695 30.7273C36.0253 30.5162 35.6995 30.6538 35.409 31.0483C35.146 31.4056 34.8632 31.7482 34.5803 32.0908C34.4184 32.2869 34.2565 32.4831 34.0982 32.6821C33.845 33.0002 33.5508 33.0671 33.1734 32.9181C30.4601 31.8461 28.3926 30.0289 26.9088 27.5277C26.6967 27.1694 26.7416 26.8952 27.0092 26.5866C27.3913 26.1452 27.742 25.6742 28.0897 25.2042C28.3391 24.866 28.3181 24.5039 28.1547 24.1236C27.7989 23.2985 27.4551 22.4681 27.1114 21.6378C27.0674 21.5317 27.0235 21.4256 26.9795 21.3195C26.4385 20.0144 26.4359 20.0144 25.0297 20.0004L25.0019 20.0001C24.4774 19.9953 24.0446 20.1616 23.6748 20.5275C22.6216 21.5673 22.0322 22.8047 22.0001 24.3102Z" fill="#1DCCC3"/>
</symbol><symbol id="whatsapp" viewBox="0 0 308 308">
<g id="XMLID_468_">
	<path id="XMLID_469_" d="M227.904,176.981c-0.6-0.288-23.054-11.345-27.044-12.781c-1.629-0.585-3.374-1.156-5.23-1.156
		c-3.032,0-5.579,1.511-7.563,4.479c-2.243,3.334-9.033,11.271-11.131,13.642c-0.274,0.313-0.648,0.687-0.872,0.687
		c-0.201,0-3.676-1.431-4.728-1.888c-24.087-10.463-42.37-35.624-44.877-39.867c-0.358-0.61-0.373-0.887-0.376-0.887
		c0.088-0.323,0.898-1.135,1.316-1.554c1.223-1.21,2.548-2.805,3.83-4.348c0.607-0.731,1.215-1.463,1.812-2.153
		c1.86-2.164,2.688-3.844,3.648-5.79l0.503-1.011c2.344-4.657,0.342-8.587-0.305-9.856c-0.531-1.062-10.012-23.944-11.02-26.348
		c-2.424-5.801-5.627-8.502-10.078-8.502c-0.413,0,0,0-1.732,0.073c-2.109,0.089-13.594,1.601-18.672,4.802
		c-5.385,3.395-14.495,14.217-14.495,33.249c0,17.129,10.87,33.302,15.537,39.453c0.116,0.155,0.329,0.47,0.638,0.922
		c17.873,26.102,40.154,45.446,62.741,54.469c21.745,8.686,32.042,9.69,37.896,9.69c0.001,0,0.001,0,0.001,0
		c2.46,0,4.429-0.193,6.166-0.364l1.102-0.105c7.512-0.666,24.02-9.22,27.775-19.655c2.958-8.219,3.738-17.199,1.77-20.458
		C233.168,179.508,230.845,178.393,227.904,176.981z"/>
	<path id="XMLID_470_" d="M156.734,0C73.318,0,5.454,67.354,5.454,150.143c0,26.777,7.166,52.988,20.741,75.928L0.212,302.716
		c-0.484,1.429-0.124,3.009,0.933,4.085C1.908,307.58,2.943,308,4,308c0.405,0,0.813-0.061,1.211-0.188l79.92-25.396
		c21.87,11.685,46.588,17.853,71.604,17.853C240.143,300.27,308,232.923,308,150.143C308,67.354,240.143,0,156.734,0z
		 M156.734,268.994c-23.539,0-46.338-6.797-65.936-19.657c-0.659-0.433-1.424-0.655-2.194-0.655c-0.407,0-0.815,0.062-1.212,0.188
		l-40.035,12.726l12.924-38.129c0.418-1.234,0.209-2.595-0.561-3.647c-14.924-20.392-22.813-44.485-22.813-69.677
		c0-65.543,53.754-118.867,119.826-118.867c66.064,0,119.812,53.324,119.812,118.867
		C276.546,215.678,222.799,268.994,156.734,268.994z"/>
</g>
</symbol></svg>