<svg xmlns="http://www.w3.org/2000/svg" width="60" height="60" viewBox="0 0 60 60" fill="none">
  <path fill-rule="evenodd" clip-rule="evenodd" d="M60 30C60 46.5685 46.5685 60 30 60C13.4315 60 0 46.5685 0 30C0 13.4315 13.4315 0 30 0C46.5685 0 60 13.4315 60 30ZM12.373 47.1562C12.5718 46.4317 12.7693 45.7115 12.9658 44.9945C13.5929 42.7066 14.211 40.4519 14.8351 38.1983C14.9182 37.8974 14.9268 37.648 14.7635 37.3509C10.6457 29.8883 12.3415 20.447 18.7991 14.8751C22.5442 11.6449 26.9075 10.1765 31.8345 10.401C40.0185 10.7736 47.2279 17.1012 48.6926 25.1686C50.4247 34.7111 44.6971 43.8103 35.3714 46.2609C30.9088 47.4342 26.597 46.9211 22.4726 44.8584C22.186 44.7151 21.9414 44.6673 21.6213 44.7533C19.207 45.4002 16.7887 46.0339 14.3709 46.6676L12.8498 47.0663C12.7633 47.0894 12.6744 47.1043 12.5662 47.1224C12.5082 47.1322 12.4447 47.1428 12.373 47.1562ZM16.7765 42.8148C17.2734 42.686 17.7644 42.5598 18.2509 42.4347C19.5395 42.1034 20.7962 41.7803 22.0474 41.439C22.3914 41.3454 22.6436 41.4018 22.9359 41.5747C26.3133 43.5744 29.939 44.2154 33.7883 43.4588C42.7548 41.696 48.1279 32.1497 45.0267 23.5272C42.1873 15.6318 33.6164 11.5771 25.6713 14.3707C19.9198 16.3913 15.8392 21.9126 15.631 27.9794C15.523 31.1417 16.295 34.0767 18.0042 36.749C18.2277 37.0987 18.2774 37.4006 18.1609 37.8028C17.8154 38.9964 17.4896 40.1951 17.1559 41.4227C17.031 41.8823 16.905 42.3459 16.7765 42.8148ZM22.0001 24.3102C22 24.3111 22 24.3119 22 24.3128V24.3099C22 24.31 22 24.3101 22.0001 24.3102ZM22.0001 24.3102C22.0237 24.4598 22.0442 24.6101 22.0647 24.7604C22.1106 25.0962 22.1565 25.432 22.2369 25.7592C22.6057 27.2535 23.4407 28.506 24.3512 29.7146C26.4952 32.5626 29.0107 34.9521 32.4043 36.261C32.4352 36.2729 32.466 36.2849 32.4968 36.2968C33.813 36.8059 35.1298 37.3153 36.588 37.1725C38.4701 36.9881 40.657 35.7757 40.5567 33.2152C40.5481 32.9773 40.3809 32.6314 40.187 32.5311C39.1869 32.0139 38.1683 31.5318 37.1499 31.0498C36.923 30.9424 36.6962 30.8351 36.4695 30.7273C36.0253 30.5162 35.6995 30.6538 35.409 31.0483C35.146 31.4056 34.8632 31.7482 34.5803 32.0908C34.4184 32.2869 34.2565 32.4831 34.0982 32.6821C33.845 33.0002 33.5508 33.0671 33.1734 32.9181C30.4601 31.8461 28.3926 30.0289 26.9088 27.5277C26.6967 27.1694 26.7416 26.8952 27.0092 26.5866C27.3913 26.1452 27.742 25.6742 28.0897 25.2042C28.3391 24.866 28.3181 24.5039 28.1547 24.1236C27.7989 23.2985 27.4551 22.4681 27.1114 21.6378C27.0674 21.5317 27.0235 21.4256 26.9795 21.3195C26.4385 20.0144 26.4359 20.0144 25.0297 20.0004L25.0019 20.0001C24.4774 19.9953 24.0446 20.1616 23.6748 20.5275C22.6216 21.5673 22.0322 22.8047 22.0001 24.3102Z" fill="#1DCCC3"/>
</svg>